<?xml version="1.0" encoding="UTF-8" standalone="no"?>
<!-- Created with Inkscape (http://www.inkscape.org/) -->

<svg
   xmlns:dc="http://purl.org/dc/elements/1.1/"
   xmlns:cc="http://creativecommons.org/ns#"
   xmlns:rdf="http://www.w3.org/1999/02/22-rdf-syntax-ns#"
   xmlns:svg="http://www.w3.org/2000/svg"
   xmlns="http://www.w3.org/2000/svg"
   xmlns:sodipodi="http://sodipodi.sourceforge.net/DTD/sodipodi-0.dtd"
   xmlns:inkscape="http://www.inkscape.org/namespaces/inkscape"
   width="1000"
   height="110"
   viewBox="0 0 264.58332 29.104166"
   version="1.1"
   id="svg1069"
   inkscape:version="0.92.2 (5c3e80d, 2017-08-06)"
   sodipodi:docname="logoheader.svg">
  <defs
     id="defs1063">
    <clipPath
       clipPathUnits="userSpaceOnUse"
       id="clipPath382">
      <path
         d="m 577.499,1238.18 h 15.962 v -7.88 h -15.962 z"
         id="path380"
         inkscape:connector-curvature="0" />
    </clipPath>
    <clipPath
       clipPathUnits="userSpaceOnUse"
       id="clipPath362">
      <path
         d="m 575.05,1227.85 h 56.926 v -36.52 H 575.05 Z"
         id="path360"
         inkscape:connector-curvature="0" />
    </clipPath>
    <clipPath
       clipPathUnits="userSpaceOnUse"
       id="clipPath338">
      <path
         d="m 413.529,1224.51 h 39.003 v -32.48 h -39.003 z"
         id="path336"
         inkscape:connector-curvature="0" />
    </clipPath>
    <clipPath
       clipPathUnits="userSpaceOnUse"
       id="clipPath318">
      <path
         d="m 383.807,1231.4 h 47.409 v -32.18 h -47.409 z"
         id="path316"
         inkscape:connector-curvature="0" />
    </clipPath>
    <clipPath
       clipPathUnits="userSpaceOnUse"
       id="clipPath294">
      <path
         d="m 532.032,1247.24 h 50.615 v -33.52 h -50.615 z"
         id="path292"
         inkscape:connector-curvature="0" />
    </clipPath>
    <clipPath
       clipPathUnits="userSpaceOnUse"
       id="clipPath262">
      <path
         d="m 459.088,1239.33 h 125.064 v -51.82 H 459.088 Z"
         id="path260"
         inkscape:connector-curvature="0" />
    </clipPath>
    <clipPath
       clipPathUnits="userSpaceOnUse"
       id="clipPath234">
      <path
         d="m 513.601,1255.55 h 21.093 v -29.48 h -21.093 z"
         id="path232"
         inkscape:connector-curvature="0" />
    </clipPath>
    <clipPath
       clipPathUnits="userSpaceOnUse"
       id="clipPath210">
      <path
         d="m 455.774,1265.33 h 19.813 v -11.35 h -19.813 z"
         id="path208"
         inkscape:connector-curvature="0" />
    </clipPath>
    <clipPath
       clipPathUnits="userSpaceOnUse"
       id="clipPath190">
      <path
         d="m 487.935,1269.83 h 13.248 v -9.78 h -13.248 z"
         id="path188"
         inkscape:connector-curvature="0" />
    </clipPath>
    <clipPath
       clipPathUnits="userSpaceOnUse"
       id="clipPath170">
      <path
         d="m 475.601,1271 h 17.276 v -19.01 h -17.276 z"
         id="path168"
         inkscape:connector-curvature="0" />
    </clipPath>
    <clipPath
       clipPathUnits="userSpaceOnUse"
       id="clipPath146">
      <path
         d="m 481.35,1256.95 h 31.39 v -32.28 h -31.39 z"
         id="path144"
         inkscape:connector-curvature="0" />
    </clipPath>
    <clipPath
       clipPathUnits="userSpaceOnUse"
       id="clipPath90">
      <path
         d="m 490.236,1270.32 h 50.176 v -25.29 h -50.176 z"
         id="path88"
         inkscape:connector-curvature="0" />
    </clipPath>
  </defs>
  <sodipodi:namedview
     id="base"
     pagecolor="#ffffff"
     bordercolor="#666666"
     borderopacity="1.0"
     inkscape:pageopacity="0.0"
     inkscape:pageshadow="2"
     inkscape:zoom="1.4142136"
     inkscape:cx="285.9687"
     inkscape:cy="115.6418"
     inkscape:document-units="mm"
     inkscape:current-layer="layer1"
     showgrid="false"
     units="px"
     inkscape:window-width="1920"
     inkscape:window-height="1001"
     inkscape:window-x="-9"
     inkscape:window-y="-9"
     inkscape:window-maximized="1" />
  <metadata
     id="metadata1066">
    <rdf:RDF>
      <cc:Work
         rdf:about="">
        <dc:format>image/svg+xml</dc:format>
        <dc:type
           rdf:resource="http://purl.org/dc/dcmitype/StillImage" />
        <dc:title></dc:title>
      </cc:Work>
    </rdf:RDF>
  </metadata>
  <g
     inkscape:label="Layer 1"
     inkscape:groupmode="layer"
     id="layer1"
     transform="translate(0,-267.89584)">
    <rect
       style="fill:#f9fcfd;fill-opacity:1;stroke:none;stroke-width:0.2656633;stroke-opacity:0"
       id="rect925"
       width="264.58334"
       height="29.130625"
       x="0"
       y="267.86938" />
    <path
       style="fill:#dae9f2;fill-opacity:1;stroke:#000000;stroke-width:0.13968006px;stroke-linecap:butt;stroke-linejoin:miter;stroke-opacity:0"
       d="m 234.72824,271.01853 c -6.44549,-0.54537 -6.46918,-0.48369 -7.63026,0.72421 -1.16107,1.20791 -2.79868,2.37257 0.96251,2.08056 3.76119,-0.29198 1.33355,0.85702 7.55678,0.23373 6.22325,-0.62328 4.11179,-0.62328 8.00131,-0.62328 3.88952,0 4.77855,1.55821 6.55662,0 1.77807,-1.5582 6.33437,-1.32447 1.44469,-1.86984 -4.88969,-0.54538 -7.00114,-1.48031 -9.00147,-0.85702 -2.00032,0.62329 -2.81558,0.1 -4.22291,0.15581 -1.22271,0.0485 -1.11914,0.37144 -3.66727,0.15583 z"
       id="path5126"
       inkscape:connector-curvature="0"
       sodipodi:nodetypes="ssssssssss" />
    <path
       inkscape:connector-curvature="0"
       id="path22"
       style="fill:#f9b757;fill-opacity:1;fill-rule:nonzero;stroke:none;stroke-width:0.22242796"
       d="m 220.91847,278.21292 c 0,3.80819 -3.08709,6.89527 -6.89527,6.89527 -3.80819,0 -6.89527,-3.08708 -6.89527,-6.89527 0,-3.80819 3.08708,-6.89526 6.89527,-6.89526 3.80818,0 6.89527,3.08707 6.89527,6.89526" />
    <path
       inkscape:connector-curvature="0"
       id="path26"
       style="fill:#dae9f2;fill-opacity:1;fill-rule:nonzero;stroke:none;stroke-width:0.22242796"
       d="m 183.77299,277.10078 c -0.0596,0.62925 3.72145,1.53475 6.22799,2.00185 4.37182,0.81454 8.57704,1.59815 13.79053,0.66728 5.63121,-1.00537 7.73404,-3.1707 11.1214,-2.00185 0.59188,0.20419 1.92044,0.75092 3.55885,0.44486 1.89798,-0.35455 3.52303,-1.7247 3.33641,-2.22428 -0.22242,-0.59566 -2.80637,0.62036 -7.56254,0.44486 -2.36286,-0.0872 -2.99856,-0.4344 -6.00556,-0.44486 -2.15399,-0.008 -3.23099,-0.0114 -4.22613,0.22243 -3.01835,0.70888 -4.36381,2.35774 -6.67284,1.77943 -0.36322,-0.091 -0.13701,-0.0834 -1.11214,-0.44486 -2.89245,-1.07188 -5.26887,-1.28141 -6.45041,-1.33457 -0.87748,-0.0396 -1.52964,-0.0125 -1.77943,0 -1.31721,0.0652 -4.17519,0.35144 -4.22613,0.88971" />
    <path
       inkscape:connector-curvature="0"
       id="path30"
       style="fill:#dae9f2;fill-opacity:1;fill-rule:nonzero;stroke:none;stroke-width:0.22242796"
       d="m 200.85835,273.39042 c -1.14172,0.56163 -1.96915,-0.0707 -2.57771,0.36522 -0.50247,0.36011 -0.716,1.34859 -0.36746,1.74117 0.59411,0.66906 2.29791,-0.9818 5.41902,-0.90239 1.50961,0.0385 2.65757,0.33364 2.65757,0.33364 1.55076,0.39859 2.21115,0.95133 2.82928,0.597 0.52226,-0.29961 0.83054,-1.14172 0.58498,-1.69513 -0.27892,-0.62925 -1.0543,-0.39058 -4.35268,-0.91862 -1.47026,-0.23533 -2.6598,-0.4978 -3.66584,0.13568 -0.21754,0.13701 -0.26669,0.21531 -0.52716,0.34343" />
    <path
       inkscape:connector-curvature="0"
       id="path34"
       style="fill:#dae9f2;fill-opacity:1;fill-rule:nonzero;stroke:none;stroke-width:0.22242796"
       d="m 188.44398,284.4409 c -4.48437,-1.10991 -6.728,-2.50765 -9.34197,-2.00185 -2.32882,0.45042 -2.07948,1.8575 -5.11584,2.44671 -0.86881,0.1686 -1.98784,0.26069 -4.22613,0.44485 -1.2198,0.10032 -1.62128,0.11033 -2.66914,0.22244 -2.06724,0.22109 -3.95877,0.42327 -4.0037,0.8897 -0.0287,0.29872 0.71088,0.59567 0.8897,0.66729 3.07775,1.2347 5.65546,-1.65509 9.56441,-1.11214 0.48845,0.0678 2.01453,0.33053 2.66913,0.44485 2.2354,0.39037 2.05057,0.40304 2.44671,0.44486 2.92604,0.30873 3.75414,-1.35747 6.89527,-1.11214 0.47244,0.0369 0.65304,0.0901 2.00185,0.22243 1.14862,0.11277 2.0123,0.19752 2.89156,0.22243 1.97605,0.0562 1.94202,-0.24845 3.78128,-0.22243 2.06746,0.0293 2.22027,0.41594 3.55885,0.22243 1.77786,-0.25691 3.16849,-1.17932 3.11399,-1.33457 -0.0336,-0.0956 -0.60834,0.11477 -1.77943,0.22243 -0.50557,0.0465 -1.40774,0.125 -2.44671,0 -1.44978,-0.17416 -1.58702,-0.55451 -3.11399,-0.66729 -0.2936,-0.0218 -0.84188,-0.0598 -1.55699,0 -0.75692,0.0634 -0.99381,0.1775 -1.557,0.22243 -0.78806,0.0629 -1.40285,-0.0741 -2.00185,-0.22243" />
    <path
       inkscape:connector-curvature="0"
       id="path82"
       style="fill:#2f3e4c;fill-opacity:1;fill-rule:nonzero;stroke:none;stroke-width:0.22242796"
       d="m 0,297.00001 v -2.29576 c 0.190684,0.0249 8.3208407,0.0844 11.195753,-0.16531 0.659135,-0.0573 1.701103,-0.25052 2.469477,-0.319 0.31506,-0.0281 0.801425,0.1381 1.133443,0.10828 1.382534,-0.12417 2.745909,-0.45825 4.385794,-0.60894 0.741156,-0.0681 0,0 2.518197,-0.33785 2.444655,-0.32798 4.907926,0.55977 7.695095,0.29806 1.242158,-0.11663 6.807948,0.48396 12.580829,0.1199 3.298823,-0.20804 6.395275,-1.45105 9.472653,-1.50576 3.832913,-0.0681 7.545424,0.68603 8.481964,0.67439 0.777005,-0.01 1.72491,-0.40546 2.51439,-0.46171 2.38848,-0.1702 4.65265,-0.14951 7.00402,-0.3728 1.05544,-0.10023 2.49338,-0.005 3.5292,-0.10297 2.45811,-0.23347 4.71948,-0.94847 6.99033,-1.16381 1.076668,-0.1021 7.991181,0.95811 16.641665,-0.41867 4.61997,-0.7353 7.45275,-0.69889 11.36273,-0.20625 5.84411,0.73634 7.4727,-0.13103 11.09061,-0.19476 6.30105,-0.11101 12.15065,-0.21649 16.4414,-0.30637 3.87699,-0.0812 6.48127,-0.1497 6.99594,-0.19801 2.23223,-0.20954 4.61122,-0.3248 6.16574,-0.50057 1.88227,-0.21283 2.75287,-0.4689 3.2345,-0.50142 0.62001,-0.0419 1.44546,0.0215 2.64877,-0.0474 3.01975,-0.17294 6.73454,-0.42762 10.94142,0.0138 4.33823,0.45524 8.68422,0.82045 11.75549,0.54273 5.18235,-0.46865 9.40024,0.0474 13.64128,-0.60522 2.89157,-0.44486 9.50412,-1.44156 11.07869,-1.46936 0,0 1.4122,-0.20175 1.91644,-0.40349 0.50425,-0.20174 2.01742,-0.90773 2.72363,-1.1097 0.70599,-0.20151 2.11818,-1.21045 2.72341,-1.31121 0.60544,-0.10097 1.41242,0.40349 1.61416,0.40349 0.20151,0 1.00849,-0.80697 1.41219,-1.21046 0.40349,-0.40348 2.62265,-1.51317 2.82439,-1.51317 0.20174,0 0.40349,0.30272 0.70621,0.30272 0.3025,0 0.50424,-0.60522 1.10948,-0.80697 0.60522,-0.20174 2.62264,-0.60522 3.02612,-1.00871 0.40349,-0.4037 3.53039,-3.73233 3.83333,-4.03506 0.3025,-0.30251 1.10947,-0.50425 1.51295,-0.60501 0.40349,-0.10098 2.31993,-1.61416 3.22788,-1.8159 0.90773,-0.20174 2.01764,-0.80697 2.32015,-0.80697 0.30249,0 1.81568,-1.00871 2.21916,-1.10947 0.40348,-0.10098 1.71469,0.30251 1.71469,0.30251 0,0 1.31144,-0.50425 1.71492,-0.30251 0.40349,0.20175 1.4122,0.90773 2.01765,0.90773 0.605,0 3.22765,-0.40348 3.63136,-0.30272 0.40326,0.10098 2.72341,1.41241 3.63136,2.32014 0.90773,0.90795 3.53037,2.92538 4.53908,3.32886 l 1.00871,0.40349 v -0.40349 c 0,0 4.53954,2.1184 5.14454,2.62265 0.60523,0.50446 1.81568,1.10969 3.02636,1.51317 1.21045,0.40349 3.42961,1.4122 3.93386,1.61395 0.39458,0.15792 0.72734,0.0687 0.85368,0.21552 0.0562,0.0656 0.22824,0.16316 0.22824,0.16316 V 297"
       sodipodi:nodetypes="ccssssssssssssssssssscsscccsccscsssccccsccssccscccccccc"
       clip-path="none"
       mask="none" />
    <g
       transform="matrix(0.22242796,0,0,-0.22242796,124.1623,554.46845)"
       id="g102">
      <g
         id="g100"
         clip-path="url(#clipPath90)">
        <g
           id="g94"
           transform="translate(540.4121,1245.0313)">
          <path
             inkscape:connector-curvature="0"
             id="path92"
             style="fill:#ffffff;fill-opacity:1;fill-rule:nonzero;stroke:none"
             d="m 0,0 c -0.943,0.816 -2.123,1.456 -3.225,2.095 -0.131,0.077 -0.263,0.155 -0.39,0.232 -2.431,1.455 -4.585,3.374 -6.313,5.619 -0.58,0.752 -1.12,1.56 -1.465,2.439 1.066,-1.396 2.495,-2.63 3.855,-3.732 C -6.023,5.429 -4.49,4.19 -2.717,3.379 -2.187,3.139 -1.624,2.925 -1.202,2.531 -0.531,1.914 -0.277,0.925 0,0" />
        </g>
        <g
           id="g98"
           transform="translate(529.0195,1255.4165)">
          <path
             inkscape:connector-curvature="0"
             id="path96"
             style="fill:#ffffff;fill-opacity:1;fill-rule:nonzero;stroke:none"
             d="M 0,0 C 0.345,-0.879 0.885,-1.687 1.465,-2.439 3.192,-4.685 5.347,-6.603 7.777,-8.059 7.904,-8.136 8.036,-8.213 8.168,-8.29 L 7.959,-8.725 C 0.848,-5.337 -5.12,0.644 -12.83,2.223 c 0,-0.703 0.943,-0.876 1.592,-1.143 1.502,-0.622 1.859,-2.74 1.138,-4.2 -0.716,-1.46 -2.149,-2.408 -3.519,-3.283 -0.503,-0.322 -1.088,-0.667 -1.733,-0.036 -0.249,0.249 -0.394,0.585 -0.484,0.929 -0.871,3.456 -4.214,6.082 -7.751,6.218 0.232,0.195 0.34,0.73 0.009,0.925 -0.472,0.277 -1.061,-0.014 -1.546,-0.277 -0.48,-0.258 -1.134,-0.471 -1.533,-0.09 0.758,0.593 1.442,1.283 2.027,2.045 l -1.827,0.413 c 0.843,0.281 1.287,1.383 0.875,2.167 -2.096,0.295 -4.762,0.381 -4.808,-3.156 -0.008,-0.553 0.114,-1.098 0.232,-1.633 0.34,-1.537 -0.671,-3.955 -2.281,-3.523 -0.422,2.517 -3.796,2.997 -6.345,2.857 1.211,3.433 4.236,6.163 7.768,7.024 1.887,0.458 4.532,1.188 4.228,3.107 -0.608,-0.558 -1.706,-0.349 -2.137,0.358 -0.43,0.703 -0.177,1.705 0.481,2.2 l 0.689,-2.272 c 2.064,0.793 4.341,1.011 6.518,0.616 -1.602,2.295 -4.59,3.47 -7.329,3.052 1.641,0.404 3.324,0.608 4.871,0.005 0.983,-0.385 2.267,-0.907 3.174,-1.442 7.202,-4.236 16.689,1.288 24.068,-2.63 L 3.573,10.168 C 4.177,8.499 3.533,6.458 2.082,5.438 1.664,5.143 1.188,4.93 0.794,4.604 -0.213,3.769 -0.54,2.309 -0.299,1.025 -0.231,0.671 -0.132,0.331 0,0" />
        </g>
      </g>
    </g>
    <path
       inkscape:connector-curvature="0"
       id="path106"
       style="fill:none;stroke:#ffffff;stroke-width:0.11121398;stroke-linecap:butt;stroke-linejoin:miter;stroke-miterlimit:10;stroke-dasharray:none;stroke-opacity:1"
       d="m 244.36506,277.53867 c -0.0616,-0.20574 -0.11811,-0.42572 -0.26736,-0.56296 -0.0939,-0.0876 -0.21909,-0.13524 -0.33698,-0.18862 -0.39436,-0.18039 -0.73534,-0.45598 -1.07232,-0.72823 -0.3025,-0.24511 -0.62035,-0.51959 -0.85746,-0.8301 -0.24289,-0.31696 -0.40348,-0.67084 -0.38102,-1.06743" />
    <path
       inkscape:connector-curvature="0"
       id="path110"
       style="fill:none;stroke:#ffffff;stroke-width:0.11121398;stroke-linecap:butt;stroke-linejoin:miter;stroke-miterlimit:10;stroke-dasharray:none;stroke-opacity:1"
       d="m 244.36506,277.53867 c 0.16437,0.14125 0.29761,0.30762 0.36412,0.51738 -0.2191,-0.0676 -0.29361,-0.2845 -0.36412,-0.51738 z" />
    <path
       inkscape:connector-curvature="0"
       id="path114"
       style="fill:none;stroke:#ffffff;stroke-width:0.11121398;stroke-linecap:butt;stroke-linejoin:miter;stroke-miterlimit:10;stroke-dasharray:none;stroke-opacity:1"
       d="m 242.62583,272.96707 c 0.13435,0.37123 -0.009,0.82521 -0.33164,1.05208 -0.093,0.0656 -0.19885,0.11299 -0.28648,0.18551 -0.22399,0.18573 -0.29673,0.51047 -0.24312,0.79607 0.0149,0.0787 0.0372,0.15436 0.0665,0.22799 0.0765,0.19551 0.19685,0.37523 0.32586,0.5425 0.38413,0.49957 0.86324,0.92619 1.40396,1.25005 0.0282,0.0171 0.0576,0.0343 0.087,0.0513 0.2449,0.14213 0.50736,0.28448 0.7171,0.46598" />
    <path
       inkscape:connector-curvature="0"
       id="path118"
       style="fill:none;stroke:#ffffff;stroke-width:0.11121398;stroke-linecap:butt;stroke-linejoin:miter;stroke-miterlimit:10;stroke-dasharray:none;stroke-opacity:1"
       d="m 236.58464,275.07135 c 0.78673,0.0303 1.53031,0.61434 1.72404,1.38283 0.02,0.0767 0.0522,0.15126 0.10766,0.20687 0.14346,0.14012 0.27358,0.0636 0.38546,-0.008 0.30473,-0.19484 0.62347,-0.40548 0.78273,-0.73023 0.16037,-0.32497 0.081,-0.79607 -0.25312,-0.93419 -0.14436,-0.0596 -0.35411,-0.0979 -0.35411,-0.25424 1.71492,0.35099 3.04237,1.68156 4.62405,2.43514 0.0302,0.0151 0.0614,0.0291 0.0919,0.0434" />
    <path
       inkscape:connector-curvature="0"
       id="path122"
       style="fill:none;stroke:#ffffff;stroke-width:0.11121398;stroke-linecap:butt;stroke-linejoin:miter;stroke-miterlimit:10;stroke-dasharray:none;stroke-opacity:1"
       d="m 236.58464,275.07135 c -0.0231,0.0182 -0.0514,0.0222 -0.0796,-0.002 0.0273,0 0.0533,0 0.0796,0.002 z" />
    <path
       inkscape:connector-curvature="0"
       id="path126"
       style="fill:none;stroke:#ffffff;stroke-width:0.11121398;stroke-linecap:butt;stroke-linejoin:miter;stroke-miterlimit:10;stroke-dasharray:none;stroke-opacity:1"
       d="m 235.47707,271.99873 c 0.60922,-0.0928 1.27406,0.16838 1.63016,0.67885 -0.48422,-0.0876 -0.99068,-0.0394 -1.44956,0.13723 l -0.15347,-0.50535 c -0.14614,0.10988 -0.20263,0.33297 -0.10677,0.48912 0.0956,0.15748 0.33988,0.20374 0.47511,0.0799 0.0676,0.42661 -0.52048,0.58898 -0.9402,0.69086 -0.78562,0.19173 -1.45869,0.79895 -1.72805,1.56255 0.56698,-0.0314 1.31744,0.0756 1.41131,0.63547 0.35811,0.0959 0.58299,-0.44174 0.50736,-0.78383 -0.0262,-0.119 -0.0534,-0.24 -0.0514,-0.363 0.0103,-0.78695 0.60322,-0.76783 1.06921,-0.70221 0.0916,0.17461 -0.007,0.41973 -0.19463,0.48223 l 0.4066,0.0916 c -0.13012,0.16972 -0.28248,0.32298 -0.45108,0.45509 0.089,0.0847 0.23421,0.0374 0.34098,-0.0202 0.1081,-0.0585 0.23911,-0.123 0.34387,-0.0614 0.0736,0.0432 0.0496,0.16238 -0.002,0.20574" />
    <path
       inkscape:connector-curvature="0"
       id="path130"
       style="fill:none;stroke:#ffffff;stroke-width:0.11121398;stroke-linecap:butt;stroke-linejoin:miter;stroke-miterlimit:10;stroke-dasharray:none;stroke-opacity:1"
       d="m 235.47099,271.99971 c -0.11789,0.0302 -0.23511,0.0636 -0.34988,0.0979 0.113,-0.0474 0.23,-0.0787 0.34988,-0.0979 z" />
    <path
       inkscape:connector-curvature="0"
       id="path134"
       style="fill:none;stroke:#ffffff;stroke-width:0.11121398;stroke-linecap:butt;stroke-linejoin:miter;stroke-miterlimit:10;stroke-dasharray:none;stroke-opacity:1"
       d="m 235.47099,271.99971 c 0.002,0 0.004,0 0.006,0" />
    <path
       inkscape:connector-curvature="0"
       id="path138"
       style="fill:none;stroke:#ffffff;stroke-width:0.11121398;stroke-linecap:butt;stroke-linejoin:miter;stroke-miterlimit:10;stroke-dasharray:none;stroke-opacity:1"
       d="m 242.61996,272.90354 c -1.6413,-0.87147 -3.75147,0.357 -5.3534,-0.58498 -0.20174,-0.11922 -0.48734,-0.23511 -0.70598,-0.32074 -0.3441,-0.13435 -0.71845,-0.089 -1.08345,0" />
    <g
       transform="matrix(0.22242796,0,0,-0.22242796,124.1623,554.46845)"
       id="g154">
      <g
         id="g152"
         clip-path="url(#clipPath146)">
        <g
           id="g150"
           transform="translate(512.7383,1232.5781)">
          <path
             inkscape:connector-curvature="0"
             id="path148"
             style="fill:#ffffff;fill-opacity:1;fill-rule:nonzero;stroke:none"
             d="m 0,0 c 0.046,-0.735 -0.87,-1.211 -1.592,-1.052 -0.721,0.158 -1.278,0.698 -1.863,1.147 -0.758,0.581 -1.61,1.03 -2.518,1.324 -0.013,-0.349 -0.026,-0.693 -0.04,-1.043 -2.408,3.066 -2.916,7.569 -6.054,9.882 -0.191,0.141 -0.4,0.277 -0.635,0.3 -0.621,0.063 -1.053,-0.694 -0.948,-1.311 0.109,-0.617 0.548,-1.106 0.907,-1.619 0.494,-0.698 0.866,-1.483 1.093,-2.304 0.113,-0.412 0.09,-0.997 -0.327,-1.084 -0.462,-0.099 -0.694,0.535 -0.711,1.007 -0.019,0.472 -0.187,1.107 -0.659,1.075 -1.151,-2.027 0.495,-4.758 -0.511,-6.862 -0.835,1.488 -1.362,3.152 -1.525,4.853 -0.779,-0.063 -1.41,-0.662 -1.895,-1.274 -0.486,-0.617 -0.921,-1.307 -1.592,-1.71 -0.671,-0.404 -1.683,-0.395 -2.105,0.267 -0.23,0.359 -0.267,0.866 -0.625,1.098 -0.476,0.313 -1.116,-0.131 -1.383,-0.635 -0.49,-0.916 -0.39,-2.113 0.236,-2.939 0.625,-0.825 1.75,-1.238 2.766,-1.016 0.331,-1.691 0.34,-3.442 0.023,-5.138 -0.091,-0.481 -0.526,-1.093 -0.921,-0.802 -0.245,2.566 -1.388,5.043 -3.183,6.893 -0.25,0.258 -0.522,0.521 -0.635,0.861 -0.318,0.971 0.77,1.937 0.589,2.939 -0.159,0.898 -1.198,1.292 -1.823,1.959 -0.59,0.631 -0.807,1.519 -1.27,2.249 -0.621,0.967 -1.642,1.588 -2.526,2.318 -0.884,0.73 -1.705,1.728 -1.66,2.871 0.989,0.167 1.755,-0.798 2.363,-1.592 0.581,-0.762 1.279,-1.501 2.2,-1.76 0.92,-0.263 2.086,0.141 2.358,1.057 l 0.29,0.204 c -0.926,0.853 -1.401,2.168 -1.238,3.415 0.059,0.449 0.195,0.921 0.045,1.352 -0.204,0.589 -0.916,1.115 -0.635,1.673 0.113,0.231 0.363,0.354 0.599,0.444 2.25,0.875 4.966,0.399 6.789,-1.183 1.025,-0.894 1.755,-2.077 2.449,-3.247 0.376,0.553 1.134,0.816 1.769,0.607 0.249,-0.081 0.516,-0.226 0.761,-0.127 0.132,0.055 0.227,0.168 0.3,0.291 0.58,0.902 0.426,2.068 0.354,3.142 -0.069,1.071 0.049,2.318 0.929,2.934 0.213,0.15 0.467,0.254 0.644,0.45 0.454,0.499 0.14,1.383 -0.462,1.687 -0.604,0.303 -1.343,0.158 -1.955,-0.123 -0.127,-0.063 -0.263,-0.131 -0.403,-0.131 -0.508,0 -0.59,0.839 -0.177,1.133 0.412,0.295 0.974,0.2 1.469,0.1 0.903,-0.181 1.85,-0.34 2.725,-0.063 0.835,0.258 1.497,0.884 2.245,1.337 0.748,0.458 1.733,0.74 2.481,0.277 -0.757,-0.245 -1.184,-1.089 -1.206,-1.882 -0.023,-0.798 0.272,-1.56 0.548,-2.308 0.731,-1.973 1.366,-3.986 1.896,-6.027 0.168,-0.644 0.326,-1.297 0.585,-1.914 0.544,-1.274 1.497,-2.327 2.213,-3.51 0.722,-1.184 1.211,-2.654 0.708,-3.946 -0.064,-0.163 -0.168,-0.34 -0.34,-0.376 -0.898,2.199 -1.796,4.394 -2.694,6.594 -0.744,1.814 -1.52,3.682 -2.898,5.079 -0.454,0.05 -0.562,-0.626 -0.44,-1.061 0.262,-0.93 0.708,-1.805 1.302,-2.558 0.298,-0.376 0.634,-0.73 0.852,-1.157 0.182,-0.357 0.273,-0.757 0.363,-1.151 0.335,-1.483 0.671,-2.971 1.002,-4.454 -0.938,0.485 -1.415,1.533 -1.923,2.463 -0.507,0.93 -1.26,1.9 -2.317,1.977 L -7.981,9.791 C -7.229,8.208 -6.471,6.621 -5.719,5.034 -5.201,3.95 -4.644,2.816 -3.655,2.127 -3.024,1.691 -2.271,1.474 -1.537,1.261 -0.856,1.061 -0.04,0.708 0,0" />
        </g>
      </g>
    </g>
    <path
       inkscape:connector-curvature="0"
       id="path158"
       style="fill:none;stroke:#ffffff;stroke-width:0.11121398;stroke-linecap:butt;stroke-linejoin:miter;stroke-miterlimit:10;stroke-dasharray:none;stroke-opacity:1"
       d="m 232.76776,278.09345 c -0.0605,0.20375 -0.31985,0.29361 -0.52449,0.23512 -0.20485,-0.0576 -0.36033,-0.22199 -0.48956,-0.39148 -0.13502,-0.17661 -0.30562,-0.39125 -0.52538,-0.35411 -0.01,0.25424 0.17238,0.47623 0.36924,0.6386 0.19662,0.16237 0.42372,0.30049 0.56185,0.51559 0.10298,0.16237 0.15125,0.35988 0.28248,0.50023 0.13902,0.14836 0.37012,0.236 0.40526,0.43574 0.0405,0.22287 -0.20151,0.43774 -0.13078,0.65372 0.0251,0.0756 0.0854,0.13412 0.14101,0.19151 0.39948,0.41149 0.65372,0.96244 0.70822,1.53319 0.0876,0.0647 0.18461,-0.0714 0.20485,-0.17839 0.0705,-0.37724 0.0683,-0.76671 -0.006,-1.14306 -0.22576,0.0496 -0.47599,-0.0423 -0.61501,-0.22576 -0.13924,-0.18372 -0.16148,-0.44997 -0.0527,-0.65371 0.0596,-0.11211 0.20196,-0.21087 0.30783,-0.14124 0.0796,0.0516 0.0879,0.16437 0.13902,0.24422 0.0939,0.14724 0.31896,0.14925 0.46821,0.0594 0.14925,-0.0897 0.24601,-0.24312 0.35389,-0.38036 0.1081,-0.13612 0.24845,-0.26936 0.42172,-0.28337 0.0363,0.37835 0.15325,0.74847 0.33898,1.07944 0.22398,-0.46799 -0.14213,-1.07544 0.11388,-1.5263 0.10499,-0.007 0.14235,0.13413 0.14636,0.23911 0.004,0.10499 0.0554,0.24601 0.15837,0.22398 0.0928,-0.0193 0.0979,-0.14947 0.0725,-0.2411 -0.0502,-0.18262 -0.13301,-0.35722 -0.24289,-0.51248 -0.0798,-0.1141 -0.1775,-0.22288 -0.20197,-0.36011 -0.0231,-0.13724 0.073,-0.30562 0.21109,-0.2916 0.0523,0.005 0.0988,0.0354 0.14102,0.0667 0.6982,0.51448 0.81119,1.51607 1.3468,2.19803 0.003,-0.0779 0.006,-0.15436 0.009,-0.23199 0.20174,0.0654 0.39148,0.16527 0.56008,0.2945 0.13012,0.0999 0.25401,0.21998 0.41438,0.25512 0.16059,0.0354 0.36434,-0.0705 0.35411,-0.23399 -0.009,-0.15748 -0.19063,-0.236 -0.34188,-0.28048 -0.16348,-0.0474 -0.33097,-0.0956 -0.4711,-0.19263 -0.21998,-0.15324 -0.34388,-0.40548 -0.45909,-0.64659 -0.16727,-0.353 -0.33587,-0.70621 -0.50336,-1.05809" />
    <path
       inkscape:connector-curvature="0"
       id="path162"
       style="fill:none;stroke:#ffffff;stroke-width:0.11121398;stroke-linecap:butt;stroke-linejoin:miter;stroke-miterlimit:10;stroke-dasharray:none;stroke-opacity:1"
       d="m 236.46669,278.1066 c 0.2351,0.0171 0.4026,0.23288 0.51537,0.43974 0.11299,0.20686 0.21908,0.43996 0.42772,0.54762 -0.0736,-0.32964 -0.14835,-0.66062 -0.22287,-0.99047 -0.0202,-0.0876 -0.0403,-0.17661 -0.0807,-0.25624 -0.0485,-0.0948 -0.12322,-0.17349 -0.18973,-0.25713 -0.1319,-0.16748 -0.23111,-0.36211 -0.28938,-0.56896 -0.0271,-0.0968 -0.003,-0.24712 0.0979,-0.23601 0.30651,0.31074 0.47889,0.72624 0.64459,1.12972 0.19975,0.48934 0.39926,0.97757 0.59923,1.46669 0.0383,-0.008 0.0614,-0.0474 0.0756,-0.0836 0.11188,-0.2876 0.003,-0.61435 -0.15748,-0.87771 -0.15926,-0.26313 -0.37123,-0.49734 -0.49223,-0.78072 -0.0576,-0.13724 -0.0928,-0.28248 -0.13012,-0.42573 -0.11789,-0.45397 -0.25913,-0.90172 -0.42172,-1.34057 -0.0614,-0.16637 -0.12701,-0.33586 -0.1219,-0.51336 0.005,-0.17661 0.0999,-0.36412 0.26826,-0.41861 -0.16638,-0.10298 -0.38547,-0.0405 -0.55185,0.0614 -0.16638,0.10098 -0.31362,0.24022 -0.49935,0.29761 -0.19462,0.0616 -0.40526,0.0262 -0.60634,-0.014 -0.10988,-0.0222 -0.23488,-0.0434 -0.32653,0.022 -0.0918,0.0656 -0.0736,0.25223 0.0392,0.25223 0.0314,0 0.0616,-0.0151 0.0899,-0.0291 0.13612,-0.0625 0.3005,-0.0947 0.43484,-0.0273 0.1339,0.0676 0.20375,0.26425 0.10276,0.37524 -0.0394,0.0436 -0.0959,0.0667 -0.14324,0.10009 -0.19574,0.13702 -0.22199,0.41438 -0.20663,0.65261 0.016,0.23888 0.0503,0.49823 -0.0787,0.69886 -0.0162,0.0273 -0.0374,0.0525 -0.0667,0.0647 -0.0545,0.022 -0.11388,-0.0102 -0.16927,-0.0282 -0.14125,-0.0465 -0.30985,0.012 -0.39348,0.13501 -0.15436,-0.26024 -0.31673,-0.52337 -0.54472,-0.72222 -0.40571,-0.35189 -1.00961,-0.45776 -1.51007,-0.26313 -0.0525,0.02 -0.1081,0.0474 -0.13323,0.0987 -0.0625,0.12412 0.0959,0.24111 0.14124,0.37213 0.0334,0.0959 0.003,0.20085 -0.0101,0.30072 -0.0363,0.27737 0.0694,0.56986 0.27536,0.75959" />
    <g
       transform="matrix(0.22242796,0,0,-0.22242796,124.1623,554.46845)"
       id="g178">
      <g
         id="g176"
         clip-path="url(#clipPath170)">
        <g
           id="g174"
           transform="translate(490.7119,1269.4121)">
          <path
             inkscape:connector-curvature="0"
             id="path172"
             style="fill:#ffffff;fill-opacity:1;fill-rule:nonzero;stroke:none"
             d="M 0,0 -0.086,0.199 C 0.149,0.716 0.427,1.279 0.943,1.515 1.46,1.75 2.245,1.388 2.158,0.825 2.108,0.472 1.764,0.245 1.46,0.059 -3.741,-3.197 -6.436,-9.17 -10.059,-14.127 c -1.243,-1.696 -2.957,-3.451 -5.052,-3.279 0.404,1.13 1.107,2.123 1.8,3.102 1.347,1.896 2.695,3.796 4.045,5.692 0.323,0.462 0.654,0.921 1.035,1.333 0.462,0.494 0.998,0.907 1.501,1.361 2.245,2 3.986,4.766 6.73,5.918" />
        </g>
      </g>
    </g>
    <path
       inkscape:connector-curvature="0"
       id="path182"
       style="fill:none;stroke:#ffffff;stroke-width:0.22242796;stroke-linecap:butt;stroke-linejoin:miter;stroke-miterlimit:10;stroke-dasharray:none;stroke-opacity:1"
       d="m 233.39507,272.08247 c -0.0282,0.01 -0.0565,0.0211 -0.0847,0.0331 -0.61034,0.25624 -0.9976,0.8717 -1.49695,1.31655 -0.11187,0.10076 -0.23088,0.19262 -0.33386,0.3025 -0.0848,0.0919 -0.15837,0.19374 -0.22999,0.29672 -0.3005,0.4215 -0.60033,0.84434 -0.89972,1.26584 -0.15436,0.21798 -0.31073,0.43885 -0.40059,0.68997 0.4662,0.0385 0.84723,-0.35188 1.12392,-0.72934 0.80586,-1.10257 1.40508,-2.43092 2.56193,-3.15514 0.0676,-0.0414 0.14435,-0.0919 0.15526,-0.1706 0.0193,-0.12501 -0.15526,-0.20575 -0.27026,-0.15326 -0.11477,0.0525 -0.17638,0.1775 -0.22887,0.2925" />
    <g
       transform="matrix(0.22242796,0,0,-0.22242796,124.1623,554.46845)"
       id="g198">
      <g
         id="g196"
         clip-path="url(#clipPath190)">
        <g
           id="g194"
           transform="translate(501.1836,1263.9292)">
          <path
             inkscape:connector-curvature="0"
             id="path192"
             style="fill:#ffffff;fill-opacity:1;fill-rule:nonzero;stroke:none"
             d="m 0,0 c -0.046,-0.358 -0.391,-0.594 -0.712,-0.762 -1.501,-0.807 -3.13,-1.347 -4.744,-1.882 -0.771,-0.258 -1.565,-0.513 -2.367,-0.44 -0.499,0.041 -0.993,0.213 -1.488,0.172 -0.739,-0.063 -1.351,-0.571 -2.041,-0.838 -0.689,-0.264 -1.682,-0.132 -1.868,0.58 -0.091,0.349 0.05,0.716 0.199,1.047 1.076,2.404 2.594,4.617 4.45,6.49 L -9.18,5.093 c 0.676,0.635 1.66,0.925 2.576,0.766 -0.321,-0.657 0.037,-1.492 0.635,-1.914 0.599,-0.426 1.362,-0.521 2.096,-0.535 0.73,-0.014 1.474,0.046 2.186,-0.118 0.149,-0.031 0.313,-0.09 0.38,-0.227 C -1.188,2.848 -1.401,2.585 -1.633,2.494 -1.864,2.399 -2.127,2.39 -2.336,2.249 -2.685,2.013 -2.712,1.474 -2.49,1.111 -2.268,0.748 -1.873,0.535 -1.479,0.381 -1.003,0.19 -0.504,0.063 0,0" />
        </g>
      </g>
    </g>
    <path
       inkscape:connector-curvature="0"
       id="path202"
       style="fill:none;stroke:#ffffff;stroke-width:0.11121398;stroke-linecap:butt;stroke-linejoin:miter;stroke-miterlimit:10;stroke-dasharray:none;stroke-opacity:1"
       d="m 233.73305,272.36386 c -0.4126,0.41662 -0.75047,0.90885 -0.98958,1.44356 -0.0334,0.0736 -0.0645,0.15526 -0.0443,0.23289 0.0412,0.15859 0.26202,0.18773 0.4155,0.12923 0.15325,-0.0596 0.28938,-0.17261 0.45397,-0.18662 0.10988,-0.009 0.21976,0.0291 0.33075,0.0383 0.17862,0.0162 0.35523,-0.0403 0.52649,-0.0979 0.359,-0.119 0.72134,-0.23889 1.0552,-0.41861 0.0716,-0.0374 0.14814,-0.0896 0.15837,-0.16949 -0.11211,-0.014 -0.22309,-0.0423 -0.32875,-0.0847 -0.0879,-0.0343 -0.1755,-0.0816 -0.2251,-0.16238 -0.0494,-0.0805 -0.0432,-0.20063 0.0343,-0.25312 0.0465,-0.0311 0.10498,-0.0334 0.15636,-0.0545 0.0516,-0.0202 0.099,-0.0785 0.0727,-0.12701 -0.0152,-0.0302 -0.0516,-0.0436 -0.0847,-0.0505 -0.15837,-0.0363 -0.32363,-0.0231 -0.48623,-0.0262 -0.16326,-0.003 -0.33297,-0.0242 -0.46598,-0.119 -0.13323,-0.0939 -0.21287,-0.27937 -0.14125,-0.42572 -0.20374,-0.0354 -0.42283,0.0294 -0.57297,0.17037" />
    <g
       transform="matrix(0.22242796,0,0,-0.22242796,124.1623,554.46845)"
       id="g218">
      <g
         id="g216"
         clip-path="url(#clipPath210)">
        <g
           id="g214"
           transform="translate(475.4473,1264.2783)">
          <path
             inkscape:connector-curvature="0"
             id="path212"
             style="fill:#ffffff;fill-opacity:1;fill-rule:nonzero;stroke:none"
             d="m 0,0 0.141,-0.036 c -0.305,-1.225 -1.225,-2.241 -2.3,-2.925 -1.12,-0.712 -2.403,-1.107 -3.673,-1.501 0.122,-0.295 0.244,-0.585 0.367,-0.88 -1.638,-0.703 -3.274,-1.406 -4.912,-2.105 -0.271,-0.117 -0.558,-0.236 -0.848,-0.199 -0.72,0.082 -1.46,1.02 -1.968,0.499 0.459,-0.277 0.463,-0.984 0.145,-1.416 -0.317,-0.43 -0.839,-0.652 -1.333,-0.852 -1.66,-0.671 -3.588,-1.333 -5.161,-0.485 l -0.014,-0.005 c -0.403,1.293 0.277,2.807 1.302,3.746 1.148,1.053 2.64,1.615 3.991,2.39 1.896,1.084 3.537,2.608 5.537,3.488 1.623,0.716 3.406,0.979 5.161,1.233 C -2.264,1.138 -0.617,1.166 0,0" />
        </g>
      </g>
    </g>
    <path
       inkscape:connector-curvature="0"
       id="path222"
       style="fill:none;stroke:#ffffff;stroke-width:0.11121398;stroke-linecap:butt;stroke-linejoin:miter;stroke-miterlimit:10;stroke-dasharray:none;stroke-opacity:1"
       d="m 225.56838,275.45962 c 0.34988,0.18862 0.77872,0.0414 1.14796,-0.10788 0.10988,-0.0445 0.22599,-0.0939 0.2965,-0.1895 0.0707,-0.0961 0.0698,-0.25335 -0.0323,-0.31474 0.113,-0.11611 0.2776,0.0927 0.43774,0.11077 0.0645,0.008 0.12835,-0.018 0.18862,-0.0443 0.36434,-0.15547 0.72823,-0.31162 1.09256,-0.46821 -0.0273,-0.0656 -0.0545,-0.13011 -0.0816,-0.19551 0.28226,-0.0879 0.56785,-0.17572 0.81698,-0.33386 0.2391,-0.15237 0.44374,-0.37836 0.51158,-0.65083 0.003,-0.0111 0.007,-0.0231 0.009,-0.0352" />
    <path
       inkscape:connector-curvature="0"
       id="path226"
       style="fill:none;stroke:#ffffff;stroke-width:0.11121398;stroke-linecap:butt;stroke-linejoin:miter;stroke-miterlimit:10;stroke-dasharray:none;stroke-opacity:1"
       d="m 229.91507,273.25761 c -0.13723,-0.25935 -0.50357,-0.25313 -0.79295,-0.21176 -0.39036,0.0565 -0.78695,0.115 -1.14795,0.27426 -0.44486,0.19573 -0.80987,0.53472 -1.23159,0.77582 -0.3005,0.17239 -0.63236,0.2974 -0.88771,0.53161 -0.22799,0.20886 -0.37923,0.54561 -0.2896,0.83322 0.0103,0.0323 0.0233,0.0645 0.0405,0.0956" />
    <g
       transform="matrix(0.22242796,0,0,-0.22242796,124.1623,554.46845)"
       id="g242">
      <g
         id="g240"
         clip-path="url(#clipPath234)">
        <g
           id="g238"
           transform="translate(521.9766,1244.3647)">
          <path
             inkscape:connector-curvature="0"
             id="path236"
             style="fill:#ffffff;fill-opacity:1;fill-rule:nonzero;stroke:none"
             d="m 0,0 c -0.771,0.045 -1.724,-0.131 -1.796,-0.875 -0.017,-0.195 0.041,-0.395 0.046,-0.594 0.018,-0.495 -0.341,-0.971 -0.813,-1.102 -0.475,-0.127 -1.024,0.104 -1.26,0.535 0.022,0.734 0.521,1.433 1.211,1.691 -0.118,0.522 -0.743,0.735 -1.279,0.749 -0.531,0.013 -1.107,-0.069 -1.56,0.208 -0.721,0.44 -0.739,1.524 -1.356,2.1 -0.471,0.44 -1.265,0.558 -1.506,1.157 -0.159,0.403 0.009,0.852 0.195,1.242 1.057,2.254 2.644,4.254 4.598,5.787 l 0.151,0.29 c 0.829,-0.417 1.768,-0.735 2.58,-1.17 C 1.719,8.671 3.175,6.004 4.494,3.479 5.433,1.678 6.39,-0.177 6.599,-2.195 6.667,-2.862 6.648,-3.542 6.767,-4.199 6.911,-5.007 7.252,-5.773 7.338,-6.585 7.42,-7.401 7.156,-8.34 6.422,-8.703 c 2.136,-2.349 4.108,-4.839 5.904,-7.451 0.213,-0.308 0.431,-0.653 0.386,-1.025 -0.077,-0.662 -0.885,-0.929 -1.547,-1.007 -1.669,-0.199 -3.374,-0.126 -5.024,0.218 -0.037,0.694 0.403,1.388 1.043,1.651 0.326,0.136 0.698,0.172 0.974,0.385 0.613,0.472 0.35,1.547 -0.307,1.951 -0.659,0.408 -1.497,0.335 -2.259,0.19 -0.69,0.871 -1.379,1.737 -2.069,2.603 -0.24,0.304 -0.494,0.644 -0.485,1.034 0.014,0.385 0.454,0.762 0.785,0.553 -0.276,1.411 -1.859,2.422 -3.256,2.068 0.807,0.74 2,1.034 3.057,0.749 -0.612,1.279 -1.991,2.149 -3.401,2.154 0.335,0.884 1.156,1.478 1.705,2.245 0.453,0.63 0.652,1.582 0.267,2.185 L 1.551,-0.195 C 1.052,0.004 0.48,-0.022 -0.009,-0.236 Z" />
        </g>
      </g>
    </g>
    <path
       inkscape:connector-curvature="0"
       id="path246"
       style="fill:none;stroke:#ffffff;stroke-width:0.22242796;stroke-linecap:butt;stroke-linejoin:miter;stroke-miterlimit:10;stroke-dasharray:none;stroke-opacity:1"
       d="m 239.0913,274.81916 c 0.0887,0.1775 0.24533,0.28938 0.42372,0.37924 0.18439,0.0928 0.39348,0.16348 0.57386,0.26024 0.55785,0.29961 0.88171,0.89283 1.17531,1.45468 0.20864,0.40037 0.42151,0.81297 0.46799,1.26183 0.0151,0.14836 0.0111,0.29962 0.0374,0.44575 0.0323,0.17972 0.10788,0.3501 0.12701,0.53071 0.0182,0.1815 -0.0403,0.39037 -0.20375,0.47111 0.47511,0.52248 0.91396,1.07632 1.31344,1.65731 0.0472,0.0685 0.0956,0.14524 0.0856,0.22799 -0.0171,0.14724 -0.19662,0.20663 -0.3441,0.22398 -0.371,0.0443 -0.75047,0.0282 -1.11747,-0.0485 -0.008,-0.15437 0.0896,-0.30873 0.23199,-0.36723 0.0725,-0.0302 0.15525,-0.0383 0.21686,-0.0856 0.13613,-0.10499 0.0776,-0.3441 -0.0685,-0.43374 -0.14635,-0.091 -0.33297,-0.0747 -0.50246,-0.0425 -0.15325,-0.19374 -0.30673,-0.38636 -0.45998,-0.57899 -0.0533,-0.0676 -0.10989,-0.14324 -0.10788,-0.22998 0.003,-0.0856 0.10098,-0.1695 0.17461,-0.12301 -0.0616,-0.31384 -0.41372,-0.53872 -0.72423,-0.45998 0.17928,-0.16438 0.44486,-0.22999 0.67974,-0.1666 -0.13612,-0.28448 -0.44286,-0.478 -0.75648,-0.4791 0.0745,-0.19664 0.25713,-0.32876 0.37924,-0.49935 0.10076,-0.14014 0.14502,-0.35189 0.0596,-0.48601 -0.0182,-0.0294 -0.0436,-0.0545 -0.0759,-0.0747" />
    <path
       inkscape:connector-curvature="0"
       id="path250"
       style="fill:none;stroke:#ffffff;stroke-width:0.22242796;stroke-linecap:butt;stroke-linejoin:miter;stroke-miterlimit:10;stroke-dasharray:none;stroke-opacity:1"
       d="m 240.29576,277.6879 c -0.0101,0 -0.0202,-0.002 -0.0314,0 -0.17127,-0.0103 -0.38324,0.0291 -0.39948,0.19463 -0.003,0.0434 0.009,0.0879 0.0103,0.13212 0.004,0.10988 -0.0756,0.21598 -0.18061,0.24512 -0.10588,0.0282 -0.22799,-0.0233 -0.28049,-0.119 0.005,-0.16349 0.11612,-0.31874 0.26936,-0.37635 -0.0262,-0.11589 -0.16526,-0.16349 -0.28426,-0.16638 -0.11811,-0.003 -0.24644,0.0151 -0.34721,-0.0465 -0.16015,-0.0979 -0.16437,-0.33897 -0.30138,-0.46687 -0.10499,-0.0979 -0.2816,-0.12412 -0.33498,-0.25735 -0.0354,-0.0896 0.002,-0.18973 0.0432,-0.27625 0.23534,-0.50136 0.58833,-0.94622 1.02295,-1.2872" />
    <path
       inkscape:connector-curvature="0"
       id="path254"
       style="fill:none;stroke:#ffffff;stroke-width:0.22242796;stroke-linecap:butt;stroke-linejoin:miter;stroke-miterlimit:10;stroke-dasharray:none;stroke-opacity:1"
       d="m 240.10808,277.85332 c 0.0416,-0.0494 0.095,-0.0879 0.15437,-0.11388 0.10898,-0.0476 0.23599,-0.0534 0.34699,-0.009" />
    <g
       transform="matrix(0.22242796,0,0,-0.22242796,124.1623,554.46845)"
       id="g270">
      <g
         id="g268"
         clip-path="url(#clipPath262)">
        <g
           id="g266"
           transform="translate(584.1523,1201.8213)">
          <path
             inkscape:connector-curvature="0"
             id="path264"
             style="fill:#ffffff;fill-opacity:1;fill-rule:nonzero;stroke:none"
             d="m 0,0 c -1.292,-0.581 -2.771,0.104 -4.014,0.78 -3.628,1.959 -7.256,3.918 -10.883,5.882 -0.572,-1.669 0.521,-3.478 1.881,-4.599 1.361,-1.124 3.025,-1.868 4.259,-3.124 1.234,-1.261 1.918,-3.37 0.853,-4.775 -1.084,-1.434 -3.23,-1.325 -5.007,-1.053 -3.692,0.567 -7.365,1.261 -11.012,2.073 -1.029,0.231 -2.28,0.73 -2.312,1.782 1.646,0.132 3.288,0.268 4.934,0.399 0.544,0.046 1.148,0.123 1.483,0.553 0.54,0.699 -0.041,1.692 -0.64,2.341 -3.923,4.253 -9.464,6.979 -15.233,7.491 -1.955,0.173 -4.63,-0.616 -4.449,-2.571 0.064,-0.653 0.467,-1.215 0.826,-1.768 1.573,-2.409 2.499,-5.384 1.85,-8.186 -0.653,-2.803 -3.18,-5.252 -6.055,-5.188 -1.355,0.027 -2.639,0.575 -3.881,1.11 -1.32,0.572 -2.635,1.139 -3.955,1.71 -0.776,0.336 -1.624,0.735 -1.963,1.511 -0.286,0.653 -0.137,1.401 -0.137,2.117 0,2.05 -1.369,3.982 -3.233,4.848 -1.86,0.862 -4.114,0.708 -5.946,-0.217 -0.979,-0.494 -1.859,-1.198 -2.902,-1.538 -1.043,-0.345 -2.367,-0.208 -2.985,0.699 -0.82,1.202 0.096,2.848 1.22,3.773 0.658,0.539 1.492,1.229 1.252,2.045 -0.144,0.494 -0.648,0.789 -1.12,1.011 -1.292,0.613 -2.984,1.03 -4.031,0.055 -1.443,-1.343 -0.254,-3.71 0.925,-5.288 0.458,-0.612 0.911,-1.233 1.337,-1.877 0.966,-1.447 1.788,-2.989 2.172,-4.681 0.549,-2.435 -0.004,-5.278 -1.963,-6.825 -11.202,-1.551 -22.471,-3.102 -33.773,-2.753 -2.149,0.064 -4.561,0.331 -5.909,2 -0.812,1.007 -1.07,2.336 -1.487,3.56 -1.021,3.007 -3.17,5.615 -5.927,7.184 -1.991,1.138 -4.571,2.109 -4.993,4.358 -0.364,1.959 1.192,3.742 1.514,5.705 0.467,2.821 -1.614,5.352 -3.506,7.492 -0.308,0.345 -0.626,0.716 -0.716,1.17 -0.208,1.057 0.876,2.014 0.775,3.084 -0.1,1.047 -1.22,1.632 -1.913,2.426 -0.377,0.427 -0.482,1.134 -0.341,1.656 0.377,0.512 1.252,0.476 1.933,0.367 0.748,-0.118 1.772,-0.005 1.9,0.739 0.059,0.327 -0.1,0.658 -0.068,0.989 0.072,0.716 0.974,1.033 1.691,0.966 1.275,-0.114 2.386,-0.862 3.578,-1.32 3.28,-1.261 7.297,-0.39 10.155,-2.435 1.732,-1.243 2.689,-3.488 2.38,-5.596 -0.253,-1.706 -1.256,-3.307 -1.097,-5.025 0.122,-1.338 1.007,-2.577 2.231,-3.13 1.225,-0.549 2.743,-0.385 3.823,0.413 0.594,0.44 1.084,1.061 1.796,1.252 1.524,0.408 2.671,-1.306 3.977,-2.191 1.116,-0.753 2.703,-0.893 3.801,-0.109 1.097,0.785 1.432,2.554 0.516,3.542 -0.372,0.399 -0.929,0.73 -0.947,1.27 -0.018,0.635 0.716,0.993 1.338,1.129 1.079,0.227 2.218,0.286 3.201,0.78 0.989,0.495 1.787,1.624 1.443,2.667 -0.146,0.431 -0.463,0.798 -0.549,1.247 -0.081,0.449 0.086,0.898 0.254,1.324 0.521,1.338 1.047,2.676 1.569,4.014 2.259,-1.742 4.943,-2.925 7.75,-3.424 1.538,-0.268 3.106,-0.336 4.662,-0.227 0.295,0.018 0.617,0.059 0.826,0.268 0.571,0.576 -0.291,1.447 -1.03,1.786 l -0.154,0.699 c -0.399,0.449 -0.798,0.903 -1.198,1.351 0.341,0.69 0.681,1.379 1.021,2.069 -1.623,-0.173 -2.798,2.181 -1.692,3.374 0.268,0.285 0.618,0.498 0.826,0.829 0.435,0.703 0.063,1.615 -0.381,2.313 -0.445,0.694 -0.984,1.443 -0.862,2.259 0.123,0.816 1.411,1.329 1.76,0.58 0.707,-1.211 1.415,-2.417 2.122,-3.623 0.417,-0.717 0.849,-1.447 1.479,-1.991 0.453,-0.39 0.998,-0.667 1.533,-0.939 3.088,-1.578 6.177,-3.152 9.265,-4.725 0.19,-0.535 0.217,-1.066 0.123,-1.579 -0.323,-1.727 -2.041,-3.279 -3.693,-4.226 -2.144,-1.229 -4.725,-2.567 -5.096,-5.012 0.362,-0.149 0.72,-0.303 1.084,-0.458 -0.382,-0.499 -0.446,-1.26 0.013,-1.614 -0.435,-0.259 -0.939,-0.513 -1.279,-0.808 -0.925,-0.797 -0.472,-2.448 0.553,-3.115 1.025,-0.671 2.341,-0.649 3.565,-0.603 1.301,0.05 3.038,0.549 2.952,1.85 -1.601,1.374 -3.588,2.286 -5.673,2.599 -0.042,0.022 -0.082,0.05 -0.118,0.077 0.635,0.372 1.124,0.753 0.752,1.293 -0.254,0.108 -0.511,0.217 -0.765,0.321 0.117,0.163 0.271,0.3 0.453,0.386 0.784,0.376 1.705,0.14 2.54,-0.104 1.949,-0.572 4.276,-1.583 4.407,-3.61 0.041,-0.636 -0.144,-1.338 0.195,-1.873 0.395,-0.617 1.357,-0.658 1.951,-0.232 0.593,0.431 0.875,1.175 0.984,1.901 0.408,2.698 -1.406,5.56 -4.023,6.344 1.742,0.068 3.973,0.558 4.2,2.281 0.235,1.796 -1.983,2.876 -2.69,4.54 1.633,1.759 4.449,1.778 6.731,1.034 2.276,-0.744 4.335,-2.1 6.648,-2.721 2.276,-0.613 5.287,-0.966 5.827,-3.256 0.132,-0.545 0.114,-1.202 0.558,-1.547 0.734,-0.576 1.773,0.331 2.703,0.236 1.024,-0.109 1.546,-1.351 2.503,-1.723 1.946,-0.753 4.413,2.321 5.818,0.784 -0.139,-1.837 2.35,-2.412 4.127,-2.893 2.482,-0.671 4.631,-2.463 5.742,-4.776 -0.009,1.356 -0.408,2.712 -1.133,3.855 0.961,-0.222 1.976,-0.471 2.679,-1.165 0.703,-0.698 0.908,-1.991 0.155,-2.631 2.753,-3.124 6.295,-5.55 10.199,-6.993 C -1.859,1.941 -0.309,1.356 0,0" />
        </g>
      </g>
    </g>
    <path
       inkscape:connector-curvature="0"
       id="path274"
       style="fill:none;stroke:#ffffff;stroke-width:0.22242796;stroke-linecap:butt;stroke-linejoin:miter;stroke-miterlimit:10;stroke-dasharray:none;stroke-opacity:1"
       d="m 239.92064,284.26376 c 0.14124,-0.0827 0.25001,-0.16726 0.16727,-0.28737 -0.0565,-0.0242 -0.11389,-0.0485 -0.17038,-0.0716 -0.0807,-0.0345 -0.16038,-0.0688 -0.24112,-0.10188 0.0825,-0.54383 0.65661,-0.84122 1.13372,-1.11458 0.36723,-0.21086 0.74958,-0.55608 0.8212,-0.94021 0.0211,-0.1141 0.0151,-0.23221 -0.0273,-0.35121 -0.68685,-0.34988 -1.37372,-0.69998 -2.06057,-1.05097 -0.119,-0.0605 -0.24022,-0.12212 -0.34098,-0.20886 -0.14013,-0.121 -0.23622,-0.28338 -0.32897,-0.44263 -0.15726,-0.26848 -0.31474,-0.53672 -0.472,-0.80608 -0.0778,-0.1666 -0.36433,-0.0525 -0.39147,0.12922 -0.0271,0.18128 0.0927,0.34788 0.19151,0.50225 0.099,0.15526 0.18173,0.35811 0.0848,0.51448 -0.0463,0.0736 -0.12389,0.121 -0.18351,0.18439 -0.246,0.26535 0.0154,0.78895 0.37635,0.75047 -0.0756,0.15347 -0.15125,0.30673 -0.2271,0.46021 0.0887,0.0999 0.17772,0.20062 0.26625,0.30049" />
    <path
       inkscape:connector-curvature="0"
       id="path278"
       style="fill:none;stroke:#ffffff;stroke-width:0.22242796;stroke-linecap:butt;stroke-linejoin:miter;stroke-miterlimit:10;stroke-dasharray:none;stroke-opacity:1"
       d="m 239.92064,284.26376 c 0.008,0.006 0.0169,0.0122 0.026,0.0171 0.46399,0.0696 0.90573,0.27248 1.26206,0.57809 0.0191,0.28961 -0.36723,0.4006 -0.65661,0.41149 -0.27247,0.0103 -0.56496,0.0152 -0.79317,-0.13412 -0.22777,-0.14836 -0.32853,-0.51559 -0.12278,-0.69286 0.0756,-0.0656 0.1875,-0.12211 0.28448,-0.17972 z" />
    <path
       inkscape:connector-curvature="0"
       id="path282"
       style="fill:none;stroke:#ffffff;stroke-width:0.22242796;stroke-linecap:butt;stroke-linejoin:miter;stroke-miterlimit:10;stroke-dasharray:none;stroke-opacity:1"
       d="m 226.49046,281.58159 c -0.10609,-0.0231 -0.17349,0.0474 -0.20085,0.14725 -0.0314,0.11611 -0.008,0.27336 0.0759,0.36812 0.15414,0.17661 0.40326,0.30673 0.4255,0.53983 0.0222,0.238 -0.21887,0.45087 -0.1726,0.68597 0.0202,0.10076 0.0908,0.1835 0.15948,0.26024 0.42083,0.47599 0.8837,1.03896 0.77983,1.66643 -0.0716,0.43663 -0.41772,0.83299 -0.33698,1.26895 0.0939,0.50024 0.66773,0.71622 1.11059,0.96934 0.61323,0.349 1.09145,0.92886 1.31832,1.5977 0.0928,0.27248 0.15037,0.56809 0.33075,0.79185 0.29984,0.37123 0.83633,0.43084 1.31456,0.44485 2.51365,0.0779 5.02042,-0.26713 7.51205,-0.61234 0.43574,-0.34388 0.55874,-0.97624 0.43663,-1.51807 -0.0856,-0.37613 -0.26825,-0.71911 -0.48311,-1.04097 -0.095,-0.14324 -0.19574,-0.28137 -0.29761,-0.41749 -0.26225,-0.35099 -0.52649,-0.87771 -0.20574,-1.1762 0.23287,-0.21687 0.60945,-0.12411 0.89682,0.012 0.10477,0.0494 0.21687,0.115 0.24912,0.22488 0.0533,0.18173 -0.13212,0.33498 -0.27848,0.45509 -0.25001,0.20574 -0.45375,0.57186 -0.27136,0.83922 0.13724,0.20174 0.43173,0.23199 0.66372,0.15548 0.232,-0.0759 0.42774,-0.23222 0.64571,-0.3421 0.40749,-0.20574 0.90884,-0.24 1.32234,-0.0485 0.4146,0.19262 0.71911,0.62257 0.71911,1.07833 0,0.15948 -0.0331,0.32585 0.0305,0.4711 0.0756,0.1726 0.26424,0.26136 0.43663,0.33587 0.2936,0.12723 0.58631,0.25312 0.8797,0.38035 0.27625,0.119 0.56207,0.24111 0.86346,0.24712 0.63948,0.0143 1.20133,-0.53049 1.3468,-1.15396 0.14414,-0.62346 -0.0618,-1.28519 -0.41171,-1.82079 -0.0796,-0.12301 -0.16949,-0.24801 -0.1835,-0.39348 -0.0405,-0.43462 0.55473,-0.61012 0.98936,-0.57186 1.2834,0.11411 2.51587,0.72022 3.38846,1.66643 0.13301,0.14436 0.26225,0.36523 0.14214,0.52048 -0.0745,0.0959 -0.20864,0.11299 -0.32964,0.123 -0.36634,0.0293 -0.73134,0.0596 -1.09769,0.0888 0.007,0.23421 0.28538,0.3452 0.51448,0.39658 0.81097,0.18062 1.62817,0.33475 2.44915,0.46087 0.39548,0.0605 0.87259,0.0847 1.1137,-0.23399 0.23711,-0.31273 0.0848,-0.78184 -0.18951,-1.06209 -0.27469,-0.27938 -0.64482,-0.44486 -0.94732,-0.69509 -0.3025,-0.24912 -0.54562,-0.65149 -0.41861,-1.02273 0.80697,0.43663 1.61394,0.87237 2.42091,1.3081 0.27648,0.15037 0.60544,0.30273 0.89283,0.17372 -0.0687,-0.30161 -0.41372,-0.43173 -0.70332,-0.53983 -0.86836,-0.32074 -1.6562,-0.86036 -2.26854,-1.55544 0.16748,-0.14214 0.12211,-0.42973 -0.0343,-0.58499 -0.15636,-0.15436 -0.38235,-0.20975 -0.59611,-0.25935 0.16149,0.25424 0.25001,0.55585 0.25224,0.85746 -0.24712,-0.51448 -0.72534,-0.91284 -1.27719,-1.06209 -0.39547,-0.10699 -0.94909,-0.23511 -0.91796,-0.64371 -0.3125,-0.34187 -0.86123,0.3421 -1.29408,0.17461 -0.21308,-0.0828 -0.32897,-0.35923 -0.55673,-0.38324 -0.20686,-0.0211 -0.43796,0.18038 -0.60145,0.0525 -0.0988,-0.0767 -0.0945,-0.22309 -0.1239,-0.3441 -0.12011,-0.50936 -0.78983,-0.5881 -1.29608,-0.72422 -0.5147,-0.13835 -0.97245,-0.43996 -1.47892,-0.60523 -0.50736,-0.16548 -1.13372,-0.16148 -1.49695,0.22999 0.15726,0.37013 0.65061,0.61035 0.59812,1.00983 -0.0503,0.38324 -0.54674,0.49201 -0.93398,0.50735 0.58187,0.17439 0.98558,0.81097 0.8946,1.41108 -0.0242,0.16149 -0.0867,0.32675 -0.21887,0.42262 -0.13212,0.095 -0.3461,0.0859 -0.43373,-0.0514 -0.0756,-0.119 -0.0343,-0.27537 -0.0434,-0.41661 -0.0291,-0.45086 -0.54672,-0.67596 -0.98046,-0.80297 -0.18572,-0.0545 -0.39036,-0.10676 -0.56496,-0.0231 -0.0403,0.0191 -0.0747,0.0494 -0.10076,0.0856 -0.085,0.111 -0.099,0.28049 0.003,0.35923" />
    <path
       inkscape:connector-curvature="0"
       id="path286"
       style="fill:none;stroke:#ffffff;stroke-width:0.22242796;stroke-linecap:butt;stroke-linejoin:miter;stroke-miterlimit:10;stroke-dasharray:none;stroke-opacity:1"
       d="m 226.26846,281.76818 c 0.006,-0.014 0.0131,-0.0282 0.0211,-0.0394 0.0838,-0.11388 0.27848,-0.10588 0.42973,-0.0816 0.16637,0.0262 0.39437,0 0.42283,-0.16437 0.0129,-0.0727 -0.0224,-0.14636 -0.0153,-0.21999 0.0162,-0.15925 0.21686,-0.22999 0.37635,-0.21486 0.28337,0.0251 0.53071,0.19173 0.79585,0.2936 0.72934,0.28049 1.62305,0.0867 2.25853,0.54161 0.38547,0.27648 0.59833,0.77583 0.5296,1.24471 -0.0565,0.37947 -0.27959,0.73535 -0.24422,1.1177 0.0271,0.29761 0.22398,0.57297 0.49645,0.6962 0.27226,0.1219 0.61012,0.0856 0.85034,-0.0919 0.13213,-0.0979 0.24111,-0.23622 0.39948,-0.27848 0.33876,-0.0908 0.59411,0.29049 0.8846,0.48712 0.24823,0.16749 0.60122,0.19885 0.84522,0.0242 0.24423,-0.17439 0.31875,-0.56786 0.115,-0.78784 -0.0827,-0.0887 -0.20686,-0.16237 -0.21063,-0.28226 -0.004,-0.14124 0.15903,-0.22087 0.2976,-0.25134 0.24,-0.0503 0.49312,-0.0634 0.71199,-0.17328 0.21999,-0.1101 0.39748,-0.36122 0.32074,-0.59321 -0.0323,-0.0959 -0.10298,-0.1775 -0.12211,-0.27737 -0.018,-0.0999 0.0191,-0.19974 0.0565,-0.29472 0.11611,-0.29761 0.2331,-0.59499 0.34921,-0.8926 0.50224,0.38724 1.09946,0.6506 1.72382,0.76159 0.34209,0.0596 0.69086,0.0745 1.03695,0.0505 0.0656,-0.004 0.13725,-0.0134 0.18373,-0.0596 0.127,-0.12812 -0.0647,-0.32185 -0.2291,-0.39748" />
    <g
       transform="matrix(0.22242796,0,0,-0.22242796,124.1623,554.46845)"
       id="g306">
      <g
         id="g304"
         clip-path="url(#clipPath294)">
        <g
           id="g298"
           transform="translate(573.2637,1235.7935)">
          <path
             inkscape:connector-curvature="0"
             id="path296"
             style="fill:#ffffff;fill-opacity:1;fill-rule:nonzero;stroke:none"
             d="m 0,0 c 1.551,-3.61 6.998,-3.624 9.383,-6.744 -4.254,1.638 -8.354,3.687 -12.217,6.114 -0.898,0.567 -1.814,1.161 -2.857,1.365 -1.039,0.199 -2.259,-0.1 -2.826,-0.998 -0.998,-1.587 0.572,-3.515 2,-4.73 -0.789,-0.05 -1.583,-0.1 -2.377,-0.15 0.005,-0.798 0.01,-1.601 0.014,-2.399 2.468,-0.861 4.858,-1.927 7.143,-3.188 2.054,-1.134 4.308,-3.065 3.742,-5.342 -0.676,0.018 -1.348,0.036 -2.019,0.054 -0.612,-1.192 0.717,-2.431 1.892,-3.075 1.174,-0.648 2.585,-1.714 2.158,-2.984 -3.043,1.728 -6.086,3.456 -9.134,5.184 -0.671,0.381 -1.351,0.767 -2.094,0.975 -1.297,0.372 -2.676,0.19 -4.023,0.177 -3.243,-0.023 -6.835,1.31 -8.109,4.295 -0.44,1.029 -0.567,2.176 -0.997,3.215 -0.427,1.034 -1.302,2.027 -2.427,2.059 0.417,0.893 1.732,0.925 2.594,0.449 0.862,-0.476 1.51,-1.284 2.377,-1.746 0.871,-0.463 2.195,-0.39 2.571,0.521 -0.218,0.826 -0.436,1.647 -0.653,2.472 0.939,-0.1 1.859,-0.354 2.716,-0.753 0.287,0.826 -0.326,1.728 -1.097,2.145 -0.767,0.417 -1.66,0.508 -2.499,0.753 -2.549,0.739 -4.467,2.857 -6.675,4.313 l 1.097,0.508 c 2.145,-1.265 4.545,-2.191 6.884,-3.075 0.503,-0.19 1.107,-0.372 1.546,-0.063 0.25,0.172 0.386,0.467 0.445,0.766 0.34,1.841 -1.923,2.966 -3.728,3.474 -1.805,0.503 -4.041,1.76 -3.564,3.569 1.161,-0.649 2.562,-0.862 3.859,-0.585 0.463,0.1 0.943,0.258 1.393,0.118 0.562,-0.177 0.879,-0.753 1.228,-1.229 2.105,-2.862 6.372,-2.821 9.841,-2.068 0.921,0.199 1.941,0.413 2.744,-0.073 C -0.58,2.671 -0.503,1.166 0,0" />
        </g>
        <g
           id="g302"
           transform="translate(550.9463,1238.2832)">
          <path
             inkscape:connector-curvature="0"
             id="path300"
             style="fill:#ffffff;fill-opacity:1;fill-rule:nonzero;stroke:none"
             d="m 0,0 -1.097,-0.508 c -0.862,0.571 -1.773,1.039 -2.78,1.288 -0.571,0.145 -1.307,0.141 -1.605,-0.367 -0.427,-0.726 0.439,-1.483 1.056,-2.05 0.616,-0.571 0.739,-1.973 -0.095,-1.914 0.848,-0.739 1.56,-1.641 2.086,-2.644 -1.375,-0.081 -2.771,0.422 -3.773,1.356 0.086,-0.531 0.172,-1.066 0.263,-1.596 -1.419,0.032 -2.721,1.22 -2.88,2.63 -0.045,0.377 -0.014,0.762 -0.141,1.12 -0.099,0.295 -0.295,0.544 -0.489,0.789 -1.842,2.327 -3.683,4.653 -5.524,6.98 -1.746,-0.399 -2.013,-3.352 -0.363,-4.055 -0.925,-0.34 -1.138,-1.587 -0.875,-2.53 0.263,-0.948 0.839,-1.805 0.952,-2.785 0.114,-0.975 -0.553,-2.167 -1.528,-2.049 -1.352,0.158 -1.261,2.099 -1.442,3.446 -0.122,0.93 -0.563,1.796 -0.658,2.73 -0.327,3.175 3.265,6.499 1.443,9.116 0.897,-0.916 1.868,-1.873 3.12,-2.154 1.251,-0.282 2.815,0.467 2.897,1.746 l -0.008,0.036 c 1.387,0.286 2.943,-0.34 4.049,-1.302 C -6.04,6.113 -5.129,4.517 -3.945,3.175 -2.816,1.891 -1.465,0.866 0,0" />
        </g>
      </g>
    </g>
    <path
       inkscape:connector-curvature="0"
       id="path310"
       style="fill:none;stroke:#ffffff;stroke-width:0.11121398;stroke-linecap:butt;stroke-linejoin:miter;stroke-miterlimit:10;stroke-dasharray:none;stroke-opacity:1"
       d="m 243.96451,277.20374 c 0.0634,-0.0354 0.13012,-0.0596 0.19885,-0.0736 0.30851,-0.0636 0.65461,0.0756 0.90062,0.2896 0.30072,0.26024 0.50335,0.61524 0.7667,0.91373 0.25113,0.2856 0.55162,0.51359 0.87749,0.70621 0.4771,0.28138 1.01093,0.48712 1.53141,0.68397 0.11188,0.0423 0.24601,0.0827 0.34388,0.014 0.0556,-0.0383 0.0856,-0.10387 0.0987,-0.1706 0.0759,-0.40927 -0.42773,-0.6595 -0.82921,-0.77249 -0.40126,-0.11211 -0.89883,-0.39148 -0.79273,-0.79385 0.25824,0.14413 0.56986,0.19151 0.85835,0.13012 0.10298,-0.0222 0.20997,-0.0576 0.30984,-0.0262 0.125,0.0394 0.19574,0.16749 0.27314,0.27336 0.46821,0.63659 1.41753,0.62747 2.18891,0.45998 0.20486,-0.0445 0.43196,-0.0919 0.61034,0.016 0.24223,0.14525 0.25935,0.48022 0.37124,0.73957 0.34498,0.80297 1.55655,0.80587 2.08704,1.49984 -0.94621,-0.36412 -1.85794,-0.82009 -2.7174,-1.3597 -0.19975,-0.12612 -0.40349,-0.25824 -0.63548,-0.30361 -0.2311,-0.0443 -0.50246,0.0222 -0.62836,0.22197 -0.22198,0.353 0.127,0.78161 0.44485,1.05209 -0.17549,0.0112 -0.3521,0.022 -0.52871,0.0331 10e-4,0.17772 0.002,0.35611 0.003,0.53383 0.54895,0.19151 1.08055,0.42862 1.5888,0.7091 0.45709,0.25201 0.95844,0.68175 0.83232,1.18821 -0.15036,-0.004 -0.2996,-0.008 -0.44885,-0.0123 -0.13635,0.26536 0.15926,0.54072 0.4206,0.68397 0.26114,0.14436 0.57498,0.38124 0.48,0.66372 -0.67662,-0.38435 -1.35347,-0.76849 -2.03143,-1.15284 -0.14925,-0.0847 -0.30072,-0.1706 -0.46599,-0.21686 -0.28848,-0.0828 -0.59521,-0.0425 -0.89482,-0.0394 -0.72134,0.005 -1.52008,-0.29161 -1.80367,-0.95533 -0.0976,-0.22888 -0.12589,-0.48423 -0.22176,-0.71511 -0.095,-0.22999 -0.2896,-0.45086 -0.53983,-0.45798 0.0928,-0.19885 0.38546,-0.20574 0.57697,-0.0999 0.19174,0.10588 0.33609,0.28538 0.52872,0.38836 0.19373,0.10277 0.48822,0.0868 0.57186,-0.11611 -0.0483,-0.18349 -0.0968,-0.36611 -0.14525,-0.54961 0.20886,0.022 0.4135,0.0785 0.60434,0.16749 0.0636,-0.18373 -0.0725,-0.38436 -0.24423,-0.47711 -0.17037,-0.093 -0.36923,-0.11322 -0.55584,-0.16749 -0.56698,-0.1646 -0.99359,-0.6357 -1.48472,-0.95934 -0.19173,-0.12722 -0.39435,-0.2311 -0.61834,-0.28648 -0.12701,-0.0323 -0.29071,-0.0314 -0.357,0.0816 -0.095,0.16149 0.0976,0.32986 0.23489,0.45598 0.13701,0.12701 0.16437,0.43885 -0.0213,0.42573 0.18883,0.16437 0.34721,0.365 0.4642,0.58809 -0.30583,0.018 -0.61635,-0.0939 -0.83922,-0.30161 0.0191,0.11811 0.0383,0.23711 0.0585,0.355 -0.31562,-0.007 -0.60522,-0.27136 -0.64059,-0.58499 -0.01,-0.0839 -0.003,-0.16949 -0.0314,-0.24934 -0.022,-0.0654 -0.0656,-0.12078 -0.10877,-0.1755 -0.4097,-0.51736 -0.8192,-1.03473 -1.22869,-1.55232 -0.38835,0.0888 -0.44775,0.74536 -0.0807,0.90195 -0.20575,0.0754 -0.25334,0.35299 -0.19462,0.56273 0.0585,0.21087 0.18661,0.40149 0.21175,0.61947 0.0253,0.21686 -0.123,0.482 -0.33987,0.45576 -0.30073,-0.0352 -0.28048,-0.46688 -0.32074,-0.76649 -0.0271,-0.20686 -0.12523,-0.39949 -0.14636,-0.60723 -0.0727,-0.70621 0.72623,-1.44556 0.32097,-2.02766 0.19951,0.20375 0.41549,0.41661 0.69397,0.47912 0.27826,0.0625 0.62614,-0.10388 0.64437,-0.38837" />
    <g
       transform="matrix(0.22242796,0,0,-0.22242796,124.1623,554.46845)"
       id="g326">
      <g
         id="g324"
         clip-path="url(#clipPath318)">
        <g
           id="g322"
           transform="translate(429.665,1230.3467)">
          <path
             inkscape:connector-curvature="0"
             id="path320"
             style="fill:#ffffff;fill-opacity:1;fill-rule:nonzero;stroke:none"
             d="m 0,0 c 2.204,-1.746 1.892,-5.396 0.109,-7.569 -1.787,-2.167 -4.553,-3.229 -7.192,-4.199 -2.032,-0.749 -4.063,-1.497 -6.091,-2.241 -3.025,-1.111 -6.077,-2.24 -8.766,-4.013 -4.141,-2.735 -7.383,-6.975 -12.081,-8.576 -1.125,-0.385 -2.318,-0.608 -3.366,-1.179 -1.269,-0.699 -2.231,-1.869 -3.496,-2.59 -1.492,-0.852 -3.365,-1.002 -4.975,-0.394 3.056,4.113 7.528,7.156 12.476,8.485 l -0.068,0.467 c 2.847,0.345 3.9,4.368 6.386,6.055 1.255,0.857 2.919,1.106 3.959,2.226 1.509,1.628 1.377,4.744 3.478,5.46 0.748,0.255 1.56,0.091 2.349,0.087 1.637,-0.005 3.26,0.73 4.336,1.968 0.539,0.626 1.024,1.419 1.836,1.596 0.467,0.1 0.97,-0.032 1.419,0.123 1.035,0.353 1.039,1.773 1.42,2.797 0.671,1.801 2.843,2.577 4.766,2.554 C -2.258,1.043 -0.975,0.771 0,0" />
        </g>
      </g>
    </g>
    <path
       inkscape:connector-curvature="0"
       id="path330"
       style="fill:none;stroke:#ffffff;stroke-width:0.22242796;stroke-linecap:butt;stroke-linejoin:miter;stroke-miterlimit:10;stroke-dasharray:none;stroke-opacity:1"
       d="m 212.30676,285.75973 c -1.10057,0.2956 -2.09527,0.97245 -2.77523,1.88729 0.35833,0.13524 0.77494,0.10188 1.1068,-0.0876 0.28138,-0.16037 0.49535,-0.42061 0.77761,-0.57609 0.23311,-0.127 0.49824,-0.17639 0.74847,-0.26224 1.04519,-0.35611 1.76631,-1.2992 2.68716,-1.90754 0.59832,-0.39437 1.27717,-0.64549 1.95002,-0.8926 0.45086,-0.16549 0.90283,-0.33187 1.35481,-0.49847 0.58676,-0.21575 1.20222,-0.45197 1.5997,-0.93398 0.39637,-0.48311 0.46598,-1.29519 -0.0242,-1.68355 -0.21687,-0.17149 -0.50224,-0.23199 -0.77872,-0.2351 -0.42773,-0.005 -0.91084,0.16748 -1.06009,0.56808 -0.085,0.22798 -0.0859,0.54361 -0.31585,0.62235 -0.0999,0.0343 -0.21175,0.005 -0.31585,0.0271 -0.18039,0.0394 -0.28827,0.21576 -0.40838,0.355 -0.2391,0.27559 -0.60011,0.43884 -0.96422,0.43796 -0.17572,0 -0.35611,-0.0374 -0.52248,0.0191 -0.46732,0.15926 -0.43796,0.85235 -0.77383,1.21446 -0.23111,0.24911 -0.60123,0.30472 -0.88059,0.49534 -0.55274,0.37524 -0.78695,1.26985 -1.42021,1.34658 -0.0264,0.004 -0.0536,0.006 -0.0819,0.006" />
    <g
       transform="matrix(0.22242796,0,0,-0.22242796,124.1623,554.46845)"
       id="g350">
      <g
         id="g348"
         clip-path="url(#clipPath338)">
        <g
           id="g342"
           transform="translate(451.5654,1224.0566)">
          <path
             inkscape:connector-curvature="0"
             id="path340"
             style="fill:#ffffff;fill-opacity:1;fill-rule:nonzero;stroke:none"
             d="m 0,0 c 1.201,-0.875 1.233,-2.789 0.372,-4.004 -0.857,-1.211 -2.341,-1.828 -3.801,-2.114 -0.494,-0.095 -1.056,-0.204 -1.319,-0.634 -0.336,-0.545 0.009,-1.334 -0.368,-1.855 -0.191,-0.272 -0.526,-0.391 -0.839,-0.499 -2.58,-0.875 -5.156,-1.751 -7.736,-2.626 0.743,-1.193 2.339,-1.528 3.746,-1.474 1.405,0.055 2.834,0.381 4.204,0.055 1.369,-0.327 2.666,-1.638 2.307,-2.998 -1.269,-0.272 -2.539,-0.544 -3.809,-0.816 l -1.093,-0.137 c -0.263,0.522 -0.757,1.007 -1.225,1.374 -2.43,1.919 -5.3,3.955 -8.339,3.338 -1.243,-0.249 -2.934,-0.739 -3.455,0.413 1.006,1.025 2.281,1.732 3.537,2.426 3.451,1.905 6.897,3.81 10.348,5.715 2.268,1.251 4.563,2.525 6.449,4.294 z" />
        </g>
        <g
           id="g346"
           transform="translate(444.3223,1207.0913)">
          <path
             inkscape:connector-curvature="0"
             id="path344"
             style="fill:#ffffff;fill-opacity:1;fill-rule:nonzero;stroke:none"
             d="m 0,0 c 3.003,-1.687 5.574,-4.136 7.401,-7.057 -8.897,0.363 -17.836,-0.399 -26.543,-2.249 -2.725,-0.581 -5.546,-1.329 -7.619,-3.184 -1.07,-0.957 -1.991,-2.226 -3.384,-2.567 -1.083,0.703 -0.688,2.486 0.3,3.32 0.985,0.839 2.313,1.138 3.397,1.846 1.084,0.703 1.9,2.208 1.156,3.265 1.878,1.025 4.367,0.612 6.077,1.905 0.876,0.666 1.398,1.682 2,2.607 0.599,0.926 1.393,1.837 2.472,2.064 1.075,0.227 2.394,-0.621 2.24,-1.71 -0.144,-1.016 -1.351,-2.154 -0.553,-2.798 3.628,-0.127 7.157,1.048 10.594,2.213 0.549,0.181 1.143,0.408 1.415,0.916 0.232,0.422 0.168,0.871 -0.046,1.293 z" />
        </g>
      </g>
    </g>
    <path
       inkscape:connector-curvature="0"
       id="path354"
       style="fill:none;stroke:#ffffff;stroke-width:0.22242796;stroke-linecap:butt;stroke-linejoin:miter;stroke-miterlimit:10;stroke-dasharray:none;stroke-opacity:1"
       d="m 224.60307,282.20404 c 0.26714,0.19462 0.27425,0.62035 0.0827,0.8906 -0.19062,0.26936 -0.5207,0.40659 -0.84544,0.47021 -0.10988,0.0211 -0.23489,0.0454 -0.29339,0.14102 -0.0747,0.12123 0.002,0.29672 -0.0819,0.4126 -0.0425,0.0605 -0.11699,0.087 -0.18662,0.111 -0.57386,0.19462 -1.14683,0.38947 -1.7207,0.58409 0.16527,0.26536 0.52026,0.33987 0.83322,0.32786 0.3125,-0.0123 0.63035,-0.0847 0.93508,-0.0123 0.30451,0.0727 0.593,0.36434 0.51314,0.66685 -0.28226,0.0605 -0.56474,0.12099 -0.84723,0.1815 0.66796,0.37545 1.23982,0.92018 1.6462,1.56967 -1.97895,-0.0807 -3.96723,0.0887 -5.90391,0.50024 -0.60611,0.12923 -1.23381,0.29561 -1.69468,0.70821 -0.23799,0.21287 -0.44285,0.49535 -0.7527,0.57097 -0.24088,-0.15636 -0.15302,-0.55273 0.0667,-0.73846 0.21887,-0.18662 0.51447,-0.25312 0.75558,-0.4106 0.24112,-0.15614 0.42262,-0.49112 0.25713,-0.72623 0.41772,-0.22798 0.97134,-0.13613 1.35169,-0.4235 0.19485,-0.14836 0.31073,-0.37435 0.44486,-0.58009 0.13324,-0.20575 0.30984,-0.4086 0.54984,-0.45887 0.23911,-0.0505 0.53249,0.13813 0.49824,0.38013 -0.0322,0.22598 -0.30072,0.47911 -0.123,0.62235 0.80697,0.0282 1.59169,-0.23288 2.3564,-0.49223 0.12211,-0.0403 0.25401,-0.0908 0.31474,-0.20374 0.0514,-0.0939 0.0374,-0.19374 -0.0103,-0.28739 -0.0585,-0.1161 -0.16837,-0.22398 -0.27247,-0.30561 -0.54051,-0.42684 -1.17887,-0.8797 -1.85483,-0.74246 -0.27648,0.0554 -0.6526,0.16437 -0.76849,-0.0919 0.22376,-0.22799 0.50736,-0.38525 0.78673,-0.53962 0.76759,-0.42372 1.53409,-0.84745 2.30168,-1.27117 0.50447,-0.27826 1.01494,-0.56163 1.43444,-0.95511 0.0282,-0.0262 0.0556,-0.0525 0.083,-0.0796" />
    <g
       id="g370"
       transform="matrix(0.22242796,0,0,-0.22242796,124.1623,554.46863)">
      <g
         id="g368"
         clip-path="url(#clipPath362)">
        <g
           id="g366"
           transform="translate(631.8066,1210.1431)">
          <path
             inkscape:connector-curvature="0"
             id="path364"
             style="fill:#ffffff;fill-opacity:1;fill-rule:nonzero;stroke:none"
             d="M -0.9107129,-0.00929299 C -0.47098669,-2.0535351 -0.458,-4.744 -2.576,-5.279 c -1.011,-0.254 -2.076,-0.018 -3.097,0.222 -3.324,0.776 -6.653,1.556 -9.977,2.336 -1.942,0.453 -3.91,0.916 -5.661,1.878 -0.825,0.453 -1.591,1.011 -2.461,1.374 -2.25,0.929 -5.052,0.281 -6.667,-1.542 0.054,-0.599 0.667,-0.952 1.129,-1.334 0.467,-0.381 0.817,-1.152 0.349,-1.532 -0.204,-0.164 -0.485,-0.177 -0.726,-0.277 -0.711,-0.286 -0.893,-1.274 -0.58,-1.977 0.313,-0.699 0.961,-1.18 1.574,-1.642 4,-3.047 7.46,-6.803 10.163,-11.043 -2.299,1.252 -4.875,1.986 -7.483,2.136 -0.626,0.036 -1.26,0.041 -1.869,0.209 -1.106,0.299 -1.995,1.097 -2.966,1.714 -3.178,2.027 -7.178,2.068 -10.847,2.944 -1.647,0.389 -3.443,1.133 -4.041,2.716 -0.512,1.338 0.005,2.875 -0.395,4.249 -0.362,1.247 -1.405,2.159 -2.054,3.284 -1.411,2.458 -0.835,5.8 -2.589,8.031 -1.678,2.136 -5.134,2.748 -5.982,5.329 1.138,1.374 3.388,0.857 4.875,-0.136 1.483,-0.989 2.87,-2.381 4.653,-2.481 0.395,-0.023 0.83,0.036 1.083,0.336 0.201,0.231 0.246,0.557 0.268,0.861 0.187,2.685 -1.079,5.388 -3.151,7.084 l 0.19,0.249 c 1.791,-1.383 3.714,-2.584 5.737,-3.591 1.673,-0.835 3.411,-1.529 5.147,-2.227 5.007,-2.009 10.014,-4.018 15.02,-6.027 0.39,-0.159 0.808,-0.318 1.22,-0.245 0.83,0.15 1.22,1.206 0.98,2.014 -0.245,0.807 -0.908,1.406 -1.537,1.959 2.108,0.789 3.967,-1.506 5.963,-2.558 2.114,-1.111 4.658,-0.798 7.034,-1.048 1.687,-0.172 3.347,-0.648 4.876,-1.392 1.962,-0.961 2.8842871,-2.508293 3.4872871,-4.60329299"
             sodipodi:nodetypes="cccccccccccccccccccccccccccccccccccccc" />
        </g>
      </g>
    </g>
    <path
       inkscape:connector-curvature="0"
       id="path374"
       style="fill:none;stroke:#ffffff;stroke-width:0.22242796;stroke-linecap:butt;stroke-linejoin:miter;stroke-miterlimit:10;stroke-dasharray:none;stroke-opacity:1"
       d="m 253.60083,281.17715 c 0.0756,0.0625 0.15236,0.12411 0.22999,0.18261 0.39836,0.30762 0.82609,0.57498 1.27607,0.79897 0.37212,0.1855 0.7587,0.33987 1.14483,0.49512 1.1137,0.44686 2.22739,0.89372 3.34087,1.3408 0.0868,0.0352 0.17972,0.0705 0.27136,0.0542 0.18462,-0.0331 0.27137,-0.26825 0.21798,-0.44796 -0.0545,-0.17951 -0.20196,-0.31252 -0.34187,-0.43574 0.46888,-0.1755 0.88237,0.33498 1.32634,0.56897 0.47022,0.24711 1.03606,0.1775 1.56455,0.2331 0.37524,0.0383 0.74447,0.14413 1.08457,0.30962 0.43662,0.21375 0.57268,0.49384 0.70659,0.95982 -0.0717,0.64073 0.16976,1.11721 -0.30133,1.23621 -0.22488,0.0565 -0.46176,0.004 -0.68886,-0.0494 -0.73935,-0.17261 -1.47981,-0.34611 -2.21916,-0.5196 -0.43196,-0.10076 -0.86969,-0.20374 -1.25894,-0.4175 -0.18373,-0.10098 -0.35411,-0.22509 -0.54763,-0.30561 -0.50045,-0.20686 -1.1237,-0.0627 -1.48292,0.34298 0.012,0.13302 0.14836,0.21176 0.25112,0.2965 0.10387,0.0847 0.18172,0.25624 0.0776,0.34098 -0.0454,0.0363 -0.10788,0.0392 -0.16126,0.0614 -0.15837,0.0636 -0.19885,0.28337 -0.12923,0.43996 0.0696,0.15525 0.21375,0.26224 0.3501,0.365 0.88971,0.67796 1.65931,1.51318 2.26053,2.45628 -0.51136,-0.27849 -1.08433,-0.44175 -1.66443,-0.47511 -0.13924,-0.008 -0.28025,-0.009 -0.41571,-0.0465 -0.24601,-0.0665 -0.44375,-0.244 -0.65972,-0.38124 -0.70688,-0.45086 -1.59659,-0.45998 -2.41268,-0.6546 -0.36634,-0.0867 -0.76582,-0.25224 -0.89883,-0.60434 -0.11388,-0.29739 0.001,-0.63948 -0.0879,-0.9451 -0.0805,-0.27737 -0.31251,-0.48022 -0.45687,-0.73023 -0.31384,-0.54673 -0.1855,-1.29031 -0.57586,-1.78654 -0.37324,-0.4751 -1.14195,-0.61123 -1.33057,-1.18532 0.25313,-0.30561 0.75359,-0.19062 1.08434,0.0305 0.32986,0.21976 0.63837,0.52938 1.03518,0.55162 0.0876,0.005 0.18439,-0.008 0.24089,-0.0745 0.0445,-0.0516 0.0545,-0.12412 0.0594,-0.19173 0.0416,-0.59722 -0.23999,-1.19844 -0.70087,-1.57568 -0.14346,-0.11789 -0.30361,-0.21375 -0.47821,-0.28137"
       sodipodi:nodetypes="ccccccccccccccccccccccccccccccccccccccc" />
    <g
       transform="matrix(0.22242796,0,0,-0.22242796,124.1623,554.46845)"
       id="g390">
      <g
         id="g388"
         clip-path="url(#clipPath382)">
        <g
           id="g386"
           transform="translate(579.291,1237.4985)">
          <path
             inkscape:connector-curvature="0"
             id="path384"
             style="fill:#ffffff;fill-opacity:1;fill-rule:nonzero;stroke:none"
             d="M 0,0 C 2.313,0.948 5.007,0.898 7.278,-0.127 L 7.201,-0.44 c 1.969,-0.503 3.837,-1.396 5.47,-2.612 0.807,-0.603 1.628,-1.465 1.482,-2.463 -0.176,-1.219 -1.673,-1.764 -2.897,-1.669 -1.23,0.096 -2.449,0.577 -3.66,0.359 -0.74,-0.127 -1.709,-0.417 -2.073,0.24 -0.145,0.263 -0.108,0.581 -0.127,0.885 -0.085,1.501 -1.519,2.58 -2.938,3.088 -1.42,0.508 -2.976,0.689 -4.25,1.492 0.458,0.549 1.094,0.953 1.782,1.143 z" />
        </g>
      </g>
    </g>
    <path
       inkscape:connector-curvature="0"
       id="path394"
       style="fill:none;stroke:#ffffff;stroke-width:0.22242796;stroke-linecap:butt;stroke-linejoin:miter;stroke-miterlimit:10;stroke-dasharray:none;stroke-opacity:1"
       d="m 253.01064,279.20906 c -0.15303,0.0423 -0.2945,0.13213 -0.39637,0.25424 0.28338,0.17861 0.62947,0.21887 0.94532,0.33186 0.31562,0.113 0.63436,0.353 0.65349,0.68686 0.004,0.0676 -0.004,0.13835 0.0282,0.19685 0.0807,0.14613 0.29649,0.0816 0.46087,0.0533 0.26936,-0.0485 0.54072,0.0585 0.8143,0.0799 0.27226,0.0211 0.605,-0.10009 0.64438,-0.37123 0.0325,-0.22199 -0.15037,-0.41372 -0.32964,-0.54784 -0.36322,-0.27048 -0.77872,-0.4691 -1.21668,-0.58099 -0.0171,-0.005 -0.0351,-0.009 -0.0523,-0.0131" />
    <path
       inkscape:connector-curvature="0"
       id="path398"
       style="fill:none;stroke:#ffffff;stroke-width:0.22242796;stroke-linecap:butt;stroke-linejoin:miter;stroke-miterlimit:10;stroke-dasharray:none;stroke-opacity:1"
       d="m 252.95113,279.23936 c 0.0202,-0.009 0.0405,-0.0182 0.0616,-0.0251 0.51448,-0.21086 1.1137,-0.19974 1.61906,0.0282" />
    <path
       style="fill:#dae9f2;fill-opacity:1;stroke:#000000;stroke-width:0.10723887px;stroke-linecap:butt;stroke-linejoin:miter;stroke-opacity:0"
       d="m 233.13658,279.38547 c -0.9546,-0.80926 -0.0199,-1.88714 1.17102,-1.89043 2.54765,-0.40073 5.16522,-0.23186 7.7034,0.13321 1.52113,0.16577 3.11942,0.0176 4.54215,0.60006 1.50438,0.49023 2.87149,-0.50935 4.2167,-0.91095 2.25774,-0.6286 5.41952,-0.60992 7.3831,0.3388 1.65773,0.80094 4.46675,0.56661 5.49081,1.92603 0.65886,0.87463 -1.44679,2.02365 -2.82033,2.01746 -1.27323,-0.15614 -1.93543,-1.21223 -2.65865,-1.99066 -0.61053,-0.86745 -2.63752,-0.85904 -3.96988,-0.71535 -2.1415,0.11945 -4.27819,0.65634 -6.05021,1.69537 -1.4175,0.63863 -3.0957,0.53501 -4.651,0.58009 -2.06838,-0.0616 -3.94882,-0.90359 -5.97736,-1.16961 -1.45028,-0.24977 -2.91267,-0.44895 -4.37975,-0.61402 z"
       id="path5123"
       inkscape:connector-curvature="0"
       sodipodi:nodetypes="cccccssccccccc" />
    <g
       aria-label="PNW Powder"
       transform="matrix(0.31020719,0,0,0.31020719,-1.781377,267.58755)"
       style="font-style:normal;font-weight:normal;font-size:40px;line-height:1.25;font-family:sans-serif;letter-spacing:0px;word-spacing:0px;fill:#2f3e4c;fill-opacity:1;stroke:none"
       id="flowRoot927">
      <path
         d="m 43.044219,54.569385 v -7.16 h 5.16 c 13.4,0 13.4,-20.8 0,-20.84 -4.12,0 -8.28,0 -12.32,0 0,9.36 0,18.68 0,28 2.36,0 4.76,0 7.16,0 z m 5.12,-13.6 h -5.12 c 0,-2.28 0,-5.72 0,-8 1.64,0 3.44,-0.04 5.12,0 4.16,0.04 3.92,8 0,8 z"
         style="font-style:normal;font-variant:normal;font-weight:bold;font-stretch:normal;font-family:Intro;-inkscape-font-specification:'Intro Bold';fill:#2f3e4c;fill-opacity:1"
         id="path930"
         inkscape:connector-curvature="0" />
      <path
         d="m 85.138594,54.609385 h 2.56 v -28.04 c -2.44,0 -4.88,0 -7.32,0 v 13.72 l -14.16,-13.84 h -2.6 v 28.12 c 2.44,0 4.92,0 7.4,0 v -13.76 z"
         style="font-style:normal;font-variant:normal;font-weight:bold;font-stretch:normal;font-family:Intro;-inkscape-font-specification:'Intro Bold';fill:#2f3e4c;fill-opacity:1"
         id="path932"
         inkscape:connector-curvature="0" />
      <path
         d="m 108.71047,27.009385 -4.68,14.88 h -0.12 l -1.24,-4.76 -3.600001,-10.56 h -7.24 v 1.08 l 9.840001,27.2 h 3.96 l 4.48,-13.48 h 0.12 l 4.48,13.48 h 4.12 l 9.72,-27.2 v -1.08 h -7.12 l -3.56,10.56 -1.24,4.76 h -0.12 l -4.76,-14.88 c -1.12,0 -1.92,0 -3.04,0 z"
         style="font-style:normal;font-variant:normal;font-weight:bold;font-stretch:normal;font-family:Intro;-inkscape-font-specification:'Intro Bold';fill:#2f3e4c;fill-opacity:1"
         id="path934"
         inkscape:connector-curvature="0" />
      <path
         d="m 150.93484,54.569385 v -7.16 h 5.16 c 13.4,0 13.4,-20.8 0,-20.84 -4.12,0 -8.28,0 -12.32,0 0,9.36 0,18.68 0,28 2.36,0 4.76,0 7.16,0 z m 5.12,-13.6 h -5.12 c 0,-2.28 0,-5.72 0,-8 1.64,0 3.44,-0.04 5.12,0 4.16,0.04 3.92,8 0,8 z"
         style="font-style:normal;font-variant:normal;font-weight:bold;font-stretch:normal;font-family:Intro;-inkscape-font-specification:'Intro Bold';fill:#2f3e4c;fill-opacity:1"
         id="path936"
         inkscape:connector-curvature="0" />
      <path
         d="m 198.50922,40.609385 c 0,-19.36 -28.72,-19.36 -28.72,0 0,19.4 28.72,19.4 28.72,0 z m -21.36,0 c 0,-10.08 14.04,-10.08 14.04,0 0,10.16 -14.04,10.16 -14.04,0 z"
         style="font-style:normal;font-variant:normal;font-weight:bold;font-stretch:normal;font-family:Intro;-inkscape-font-specification:'Intro Bold';fill:#2f3e4c;fill-opacity:1"
         id="path938"
         inkscape:connector-curvature="0" />
      <path
         d="m 217.85109,27.009385 -4.68,14.88 h -0.12 l -1.24,-4.76 -3.6,-10.56 h -7.24 v 1.08 l 9.84,27.2 h 3.96 l 4.48,-13.48 h 0.12 l 4.48,13.48 h 4.12 l 9.72,-27.2 v -1.08 h -7.12 l -3.56,10.56 -1.24,4.76 h -0.12 l -4.76,-14.88 c -1.12,0 -1.92,0 -3.04,0 z"
         style="font-style:normal;font-variant:normal;font-weight:bold;font-stretch:normal;font-family:Intro;-inkscape-font-specification:'Intro Bold';fill:#2f3e4c;fill-opacity:1"
         id="path940"
         inkscape:connector-curvature="0" />
      <path
         d="m 252.45984,26.569385 h -10.56 v 28 h 10.56 c 18.24,-0.08 18.24,-27.92 0,-28 z m -3.4,6.52 h 3.4 c 8.92,0 8.92,14.96 0,14.96 h -3.4 z"
         style="font-style:normal;font-variant:normal;font-weight:bold;font-stretch:normal;font-family:Intro;-inkscape-font-specification:'Intro Bold';fill:#2f3e4c;fill-opacity:1"
         id="path942"
         inkscape:connector-curvature="0" />
      <path
         d="m 289.06734,26.569385 c -6.56,0 -11,0 -17.48,0 0,9.28 0,18.64 0,28 6.48,0 11.28,0 17.84,0 0,-2.12 0,-4.28 0,-6.36 -4.2,0 -6.6,0 -10.72,0 0,-1.68 0,-3.28 0,-4.92 h 9.52 c 0,-2.12 0,-4.24 0,-6.36 h -9.52 v -3.96 c 4.12,0 6.2,0 10.36,0 0,-2.16 0,-4.32 0,-6.4 z"
         style="font-style:normal;font-variant:normal;font-weight:bold;font-stretch:normal;font-family:Intro;-inkscape-font-specification:'Intro Bold';fill:#2f3e4c;fill-opacity:1"
         id="path944"
         inkscape:connector-curvature="0" />
      <path
         d="m 313.73172,44.649385 c 7.08,-4.8 5.08,-18.04 -5.92,-18.08 -4.08,0 -8.24,0 -12.28,0 0,9.36 0,18.68 0,28 2.32,0 4.76,0 7.16,0 v -8.24 h 3.72 l 4.8,8.24 h 8 v -1.04 z m -5.92,-4.76 h -5.12 c 0,-2.24 0,-4.64 0,-6.92 1.68,0 3.44,-0.04 5.12,0 4.08,0.04 3.88,6.92 0,6.92 z"
         style="font-style:normal;font-variant:normal;font-weight:bold;font-stretch:normal;font-family:Intro;-inkscape-font-specification:'Intro Bold';fill:#2f3e4c;fill-opacity:1"
         id="path946"
         inkscape:connector-curvature="0" />
    </g>
  </g>
</svg>
